<svg width="146" height="83" viewBox="0 0 146 83" fill="none" xmlns="http://www.w3.org/2000/svg">
<g clip-path="url(#clip0_612_129)">
<path d="M0 62.0283H1.59931C2.65029 62.0283 3.51277 62.2576 4.17535 62.7106C4.84363 63.1635 5.17492 63.7426 5.17492 64.4363C5.17492 65.2848 4.6837 65.99 3.70126 66.5576C5.22632 67.0621 5.98599 67.9393 5.98599 69.1891C5.98599 70.0606 5.59188 70.76 4.80936 71.2932C4.02684 71.8264 2.97586 72.0901 1.65643 72.0901H0V62.0341V62.0283ZM1.36513 63.2438V66.2193C2.1248 66.2078 2.70741 66.0645 3.11295 65.7836C3.51849 65.5027 3.7184 65.1185 3.7184 64.6312C3.7184 64.2069 3.53562 63.863 3.17006 63.6107C2.80451 63.3527 2.319 63.2266 1.70212 63.2266C1.57075 63.2266 1.45652 63.2266 1.35941 63.2438H1.36513ZM1.36513 67.4118V70.8518H1.47365C2.66171 70.8518 3.47279 70.6626 3.90689 70.2842C4.34099 69.9058 4.55804 69.5159 4.55804 69.1261C4.55804 68.6043 4.31243 68.1915 3.82692 67.8762C3.34142 67.5666 2.67314 67.4118 1.82778 67.4118H1.35941H1.36513Z" fill="white"/>
<path d="M7.87695 62.0449H9.25921V68.2253C9.25921 69.1427 9.48198 69.8478 9.92179 70.3466C10.3616 70.8454 10.9899 71.0977 11.7953 71.0977C12.6006 71.0977 13.2232 70.8684 13.6687 70.4097C14.1143 69.951 14.337 69.3032 14.337 68.4661V62.0449H15.7193V68.3687C15.7193 69.6013 15.3652 70.5874 14.6626 71.3213C13.9543 72.0609 13.0176 72.4278 11.841 72.4278C10.6643 72.4278 9.68189 72.0551 8.95649 71.3041C8.2368 70.5588 7.87695 69.4523 7.87695 67.996V62.0449Z" fill="white"/>
<path d="M24.2235 63.1523L23.104 64.0467C22.807 63.7428 22.5385 63.5135 22.2986 63.3644C22.0587 63.2154 21.7103 63.1408 21.2591 63.1408C20.7622 63.1408 20.3623 63.2498 20.0539 63.4734C19.7455 63.697 19.5912 63.9836 19.5912 64.3334C19.5912 64.6372 19.7283 64.9067 19.9968 65.1417C20.2652 65.3768 20.7279 65.6291 21.3733 65.91C22.0245 66.1852 22.5271 66.4432 22.887 66.684C23.2468 66.9248 23.5438 67.1885 23.778 67.4752C24.0122 67.7676 24.1835 68.0714 24.2978 68.3925C24.412 68.7135 24.4691 69.0518 24.4691 69.413C24.4691 70.2501 24.1664 70.961 23.5552 71.5515C22.9441 72.142 22.2072 72.4344 21.3391 72.4344C20.4709 72.4344 19.7455 72.2051 19.1 71.7464C18.4546 71.2878 17.9519 70.594 17.6035 69.6767L18.9858 69.2926C19.4884 70.422 20.2595 70.9896 21.2934 70.9896C21.796 70.9896 22.213 70.8406 22.5442 70.5424C22.8755 70.2443 23.0412 69.8659 23.0412 69.4073C23.0412 69.1321 22.9555 68.8626 22.7784 68.5874C22.6014 68.3122 22.3843 68.0829 22.1273 67.9052C21.8703 67.7274 21.4533 67.521 20.8878 67.2917C20.3223 67.0624 19.8882 66.8502 19.5798 66.6553C19.2714 66.4604 19.0086 66.2368 18.7859 65.9673C18.5631 65.6979 18.3975 65.4399 18.2946 65.1761C18.1918 64.9124 18.1404 64.6315 18.1404 64.3334C18.1404 63.611 18.4317 62.9975 19.0143 62.493C19.5969 61.9827 20.2995 61.7305 21.1334 61.7305C21.6818 61.7305 22.2415 61.8509 22.807 62.0859C23.3725 62.321 23.8408 62.6822 24.2178 63.1695L24.2235 63.1523Z" fill="white"/>
<path d="M26.4746 62.0283H27.8397V72.0844H26.4746V62.0283Z" fill="white"/>
<path d="M30.3066 61.6268L37.7777 69.2692V62.0282H39.16V72.5544L31.6889 64.9406V72.0842H30.3066V61.6211V61.6268Z" fill="white"/>
<path d="M41.4336 62.0283H47.0312V63.4043H42.7987V65.9155H47.0312V67.2742H42.7987V70.7314H47.0312V72.0901H41.4336V62.0341V62.0283Z" fill="white"/>
<path d="M55.1474 63.1523L54.0278 64.0467C53.7308 63.7428 53.4624 63.5135 53.2225 63.3644C52.9826 63.2154 52.6341 63.1408 52.1829 63.1408C51.686 63.1408 51.2862 63.2498 50.9777 63.4734C50.6693 63.697 50.5151 63.9836 50.5151 64.3334C50.5151 64.6372 50.6521 64.9067 50.9206 65.1417C51.1891 65.3768 51.6517 65.6291 52.2971 65.91C52.9483 66.1852 53.4509 66.4432 53.8108 66.684C54.1706 66.9248 54.4676 67.1885 54.7018 67.4752C54.936 67.7676 55.1074 68.0714 55.2216 68.3925C55.3358 68.7135 55.393 69.0518 55.393 69.413C55.393 70.2501 55.0902 70.961 54.4791 71.5515C53.8679 72.142 53.1311 72.4344 52.2629 72.4344C51.3947 72.4344 50.6693 72.2051 50.0238 71.7464C49.3784 71.2878 48.8758 70.594 48.5273 69.6767L49.9096 69.2926C50.4122 70.422 51.1833 70.9896 52.2172 70.9896C52.7198 70.9896 53.1368 70.8406 53.4681 70.5424C53.7994 70.2443 53.965 69.8659 53.965 69.4073C53.965 69.1321 53.8793 68.8626 53.7023 68.5874C53.5252 68.3122 53.3081 68.0829 53.0511 67.9052C52.7941 67.7274 52.3771 67.521 51.8116 67.2917C51.2462 67.0624 50.8121 66.8502 50.5036 66.6553C50.1952 66.4604 49.9325 66.2368 49.7097 65.9673C49.4869 65.6979 49.3213 65.4399 49.2185 65.1761C49.1157 64.9124 49.0643 64.6315 49.0643 64.3334C49.0643 63.611 49.3556 62.9975 49.9382 62.493C50.5208 61.9827 51.2233 61.7305 52.0573 61.7305C52.6056 61.7305 53.1653 61.8509 53.7308 62.0859C54.2963 62.321 54.7647 62.6822 55.1416 63.1695L55.1474 63.1523Z" fill="white"/>
<path d="M63.5946 63.1523L62.4751 64.0467C62.1781 63.7428 61.9096 63.5135 61.6697 63.3644C61.4298 63.2154 61.0814 63.1408 60.6302 63.1408C60.1333 63.1408 59.7334 63.2498 59.425 63.4734C59.1165 63.697 58.9623 63.9836 58.9623 64.3334C58.9623 64.6372 59.0994 64.9067 59.3679 65.1417C59.6363 65.3768 60.099 65.6291 60.7444 65.91C61.3956 66.1852 61.8982 66.4432 62.258 66.684C62.6179 66.9248 62.9149 67.1885 63.1491 67.4752C63.3833 67.7676 63.5546 68.0714 63.6689 68.3925C63.7831 68.7135 63.8402 69.0518 63.8402 69.413C63.8402 70.2501 63.5375 70.961 62.9263 71.5515C62.3152 72.142 61.5783 72.4344 60.7101 72.4344C59.8419 72.4344 59.1165 72.2051 58.4711 71.7464C57.8257 71.2878 57.323 70.594 56.9746 69.6767L58.3569 69.2926C58.8595 70.422 59.6306 70.9896 60.6644 70.9896C61.1671 70.9896 61.5841 70.8406 61.9153 70.5424C62.2466 70.2443 62.4123 69.8659 62.4123 69.4073C62.4123 69.1321 62.3266 68.8626 62.1495 68.5874C61.9725 68.3122 61.7554 68.0829 61.4984 67.9052C61.2413 67.7274 60.8244 67.521 60.2589 67.2917C59.6934 67.0624 59.2593 66.8502 58.9509 66.6553C58.6425 66.4604 58.3797 66.2368 58.157 65.9673C57.9342 65.6979 57.7686 65.4399 57.6657 65.1761C57.5629 64.9124 57.5115 64.6315 57.5115 64.3334C57.5115 63.611 57.8028 62.9975 58.3854 62.493C58.968 61.9827 59.6706 61.7305 60.5045 61.7305C61.0529 61.7305 61.6126 61.8509 62.1781 62.0859C62.7436 62.321 63.2119 62.6822 63.5889 63.1695L63.5946 63.1523Z" fill="white"/>
<path d="M76.8407 63.1523L75.7212 64.0467C75.4242 63.7428 75.1557 63.5135 74.9158 63.3644C74.6759 63.2154 74.3275 63.1408 73.8763 63.1408C73.3793 63.1408 72.9795 63.2498 72.6711 63.4734C72.3626 63.697 72.2084 63.9836 72.2084 64.3334C72.2084 64.6372 72.3455 64.9067 72.614 65.1417C72.8824 65.3768 73.3451 65.6291 73.9905 65.91C74.6417 66.1852 75.1443 66.4432 75.5041 66.684C75.864 66.9248 76.161 67.1885 76.3952 67.4752C76.6294 67.7676 76.8007 68.0714 76.915 68.3925C77.0292 68.7135 77.0863 69.0518 77.0863 69.413C77.0863 70.2501 76.7836 70.961 76.1724 71.5515C75.5613 72.142 74.8244 72.4344 73.9562 72.4344C73.088 72.4344 72.3626 72.2051 71.7172 71.7464C71.0718 71.2878 70.5691 70.594 70.2207 69.6767L71.603 69.2926C72.1056 70.422 72.8767 70.9896 73.9105 70.9896C74.4132 70.9896 74.8301 70.8406 75.1614 70.5424C75.4927 70.2443 75.6584 69.8659 75.6584 69.4073C75.6584 69.1321 75.5727 68.8626 75.3956 68.5874C75.2186 68.3122 75.0015 68.0829 74.7445 67.9052C74.4874 67.7274 74.0705 67.521 73.505 67.2917C72.9395 67.0624 72.5054 66.8502 72.197 66.6553C71.8886 66.4604 71.6258 66.2368 71.4031 65.9673C71.1803 65.6979 71.0146 65.4399 70.9118 65.1761C70.809 64.9124 70.7576 64.6315 70.7576 64.3334C70.7576 63.611 71.0489 62.9975 71.6315 62.493C72.2141 61.9827 72.9167 61.7305 73.7506 61.7305C74.2989 61.7305 74.8587 61.8509 75.4242 62.0859C75.9896 62.321 76.458 62.6822 76.835 63.1695L76.8407 63.1523Z" fill="white"/>
<path d="M78.0469 66.9989C78.0469 65.5484 78.5952 64.3043 79.6976 63.2666C80.7943 62.2289 82.1194 61.7129 83.6616 61.7129C85.2038 61.7129 86.4661 62.2346 87.5571 63.2781C88.648 64.3215 89.1906 65.5599 89.1906 66.9989C89.1906 68.5182 88.6537 69.8025 87.5742 70.8517C86.5004 71.9008 85.1809 72.4226 83.6159 72.4226C82.0509 72.4226 80.76 71.8951 79.6747 70.8345C78.5895 69.7795 78.0469 68.4953 78.0469 66.9932V66.9989ZM87.7227 67.062C87.7227 65.9497 87.3229 65.0152 86.5175 64.2584C85.7121 63.4959 84.724 63.1175 83.5531 63.1175C82.3822 63.1175 81.4797 63.5017 80.6857 64.2756C79.8918 65.0496 79.492 65.9784 79.492 67.062C79.492 68.1456 79.9032 69.0916 80.72 69.8483C81.5368 70.6109 82.5364 70.9893 83.7187 70.9893C84.8097 70.9893 85.7464 70.5994 86.5404 69.8254C87.3286 69.0514 87.7284 68.1284 87.7284 67.062H87.7227Z" fill="white"/>
<path d="M90.8633 62.0283H92.2284V70.7314H95.5184V72.0901H90.8633V62.0341V62.0283Z" fill="white"/>
<path d="M96.3809 62.0449H97.7631V68.2253C97.7631 69.1427 97.9859 69.8478 98.4257 70.3466C98.8655 70.8454 99.4938 71.0977 100.299 71.0977C101.105 71.0977 101.727 70.8684 102.173 70.4097C102.618 69.951 102.841 69.3032 102.841 68.4661V62.0449H104.223V68.3687C104.223 69.6013 103.869 70.5874 103.167 71.3213C102.458 72.0609 101.521 72.4278 100.345 72.4278C99.1682 72.4278 98.1858 72.0551 97.4604 71.3041C96.7407 70.5588 96.3809 69.4523 96.3809 67.996V62.0449Z" fill="white"/>
<path d="M105.297 62.0283H111.471V63.4043H109.061V72.0901H107.696V63.4043H105.291V62.0283H105.297Z" fill="white"/>
<path d="M112.678 62.0283H114.043V72.0844H112.678V62.0283Z" fill="white"/>
<path d="M115.516 66.9989C115.516 65.5484 116.064 64.3043 117.166 63.2666C118.263 62.2289 119.588 61.7129 121.13 61.7129C122.673 61.7129 123.935 62.2346 125.026 63.2781C126.117 64.3215 126.659 65.5599 126.659 66.9989C126.659 68.5182 126.122 69.8025 125.043 70.8517C123.969 71.9008 122.65 72.4226 121.085 72.4226C119.52 72.4226 118.229 71.8951 117.143 70.8345C116.058 69.7795 115.516 68.4953 115.516 66.9932V66.9989ZM125.191 67.062C125.191 65.9497 124.792 65.0152 123.986 64.2584C123.181 63.4959 122.193 63.1175 121.022 63.1175C119.851 63.1175 118.948 63.5017 118.154 64.2756C117.361 65.0496 116.961 65.9784 116.961 67.062C116.961 68.1456 117.372 69.0916 118.189 69.8483C119.006 70.6109 120.005 70.9893 121.187 70.9893C122.278 70.9893 123.215 70.5994 124.009 69.8254C124.797 69.0514 125.197 68.1284 125.197 67.062H125.191Z" fill="white"/>
<path d="M128.053 61.6268L135.524 69.2692V62.0282H136.906V72.5544L129.435 64.9406V72.0842H128.053V61.6211V61.6268Z" fill="white"/>
<path d="M144.811 63.1523L143.692 64.0467C143.395 63.7428 143.126 63.5135 142.887 63.3644C142.647 63.2154 142.298 63.1408 141.847 63.1408C141.35 63.1408 140.95 63.2498 140.642 63.4734C140.333 63.697 140.179 63.9836 140.179 64.3334C140.179 64.6372 140.316 64.9067 140.585 65.1417C140.853 65.3768 141.316 65.6291 141.961 65.91C142.612 66.1852 143.115 66.4432 143.475 66.684C143.835 66.9248 144.132 67.1885 144.366 67.4752C144.6 67.7676 144.771 68.0714 144.886 68.3925C145 68.7135 145.057 69.0518 145.057 69.413C145.057 70.2501 144.754 70.961 144.143 71.5515C143.532 72.142 142.795 72.4344 141.927 72.4344C141.059 72.4344 140.333 72.2051 139.688 71.7464C139.042 71.2878 138.54 70.594 138.191 69.6767L139.574 69.2926C140.076 70.422 140.847 70.9896 141.881 70.9896C142.384 70.9896 142.801 70.8406 143.132 70.5424C143.463 70.2443 143.629 69.8659 143.629 69.4073C143.629 69.1321 143.543 68.8626 143.366 68.5874C143.189 68.3122 142.972 68.0829 142.715 67.9052C142.458 67.7274 142.041 67.521 141.476 67.2917C140.91 67.0624 140.476 66.8502 140.168 66.6553C139.859 66.4604 139.597 66.2368 139.374 65.9673C139.151 65.6979 138.985 65.4399 138.883 65.1761C138.78 64.9124 138.728 64.6315 138.728 64.3334C138.728 63.611 139.02 62.9975 139.602 62.493C140.185 61.9827 140.887 61.7305 141.721 61.7305C142.27 61.7305 142.829 61.8509 143.395 62.0859C143.96 62.321 144.429 62.6822 144.806 63.1695L144.811 63.1523Z" fill="white"/>
<path d="M30.3646 76.8318L31.764 81.189L34.3229 76.8203L34.8427 82.7714H34.0944L33.8145 79.2111L31.5584 83.0007L30.3075 79.1308L29.0337 82.7714H28.2227L30.3703 76.8318H30.3646Z" fill="white"/>
<path d="M39.0588 79.1824H39.8242L39.2987 82.7714H38.5276L38.5848 82.3873C38.2306 82.7141 37.8536 82.8746 37.4481 82.8746C36.9683 82.8746 36.5513 82.6912 36.1972 82.3185C35.8431 81.9516 35.666 81.5101 35.666 81.0056C35.666 80.5011 35.8488 80.0309 36.2201 79.6525C36.5913 79.2742 37.0311 79.085 37.5452 79.085C38.1507 79.085 38.619 79.3774 38.9446 79.9564L39.0588 79.1767V79.1824ZM38.8646 80.9024C38.8646 80.5813 38.7504 80.3061 38.5162 80.0711C38.282 79.8417 38.0079 79.7214 37.6937 79.7214C37.3796 79.7214 37.0825 79.8475 36.8427 80.0997C36.6085 80.352 36.4885 80.6616 36.4885 81.0171C36.4885 81.3725 36.597 81.6649 36.8198 81.8942C37.0426 82.1236 37.3224 82.2382 37.6594 82.2382C37.9964 82.2382 38.2877 82.1121 38.5162 81.8598C38.7447 81.6076 38.8589 81.2865 38.8589 80.8967L38.8646 80.9024Z" fill="white"/>
<path d="M40.4295 82.7707L40.955 79.1817H41.7204L41.6347 79.8181C41.8746 79.5716 42.0974 79.3881 42.2916 79.2734C42.4915 79.153 42.7086 79.0957 42.9485 79.0957C43.2112 79.0957 43.4454 79.2046 43.651 79.4168C43.8566 79.6289 43.9595 79.8754 43.9595 80.1449C43.9595 80.2079 43.9595 80.2653 43.948 80.2997L43.571 82.7707H42.8171L43.1598 80.4831C43.1655 80.4545 43.1712 80.4029 43.1712 80.3341C43.1712 80.1506 43.1198 80.0016 43.0113 79.8926C42.9028 79.778 42.7657 79.7206 42.5886 79.7206C42.3144 79.7206 42.0631 79.864 41.8461 80.1506C41.629 80.4373 41.4805 80.8157 41.4063 81.2858L41.1892 82.765H40.4238L40.4295 82.7707Z" fill="white"/>
<path d="M45.153 79.1826H45.9298L45.5699 81.4702L45.5585 81.5906C45.5585 81.9518 45.787 82.1352 46.2382 82.1352C46.4781 82.1352 46.6894 82.0664 46.8665 81.9288C47.0436 81.7912 47.1464 81.6192 47.1807 81.4186L47.5234 79.1883H48.2773L47.9403 81.43C47.8775 81.8715 47.6833 82.227 47.3634 82.4907C47.0436 82.7544 46.6437 82.8863 46.164 82.8863C45.787 82.8863 45.4614 82.7716 45.1987 82.5423C44.9359 82.313 44.7988 82.032 44.7988 81.711C44.7988 81.5218 44.8103 81.3612 44.8388 81.2294C44.8617 81.0975 44.8788 81.0172 44.8845 80.9886L45.153 79.1941V79.1826Z" fill="white"/>
<path d="M51.8464 76.9405L51.6237 77.6686C51.4066 77.6055 51.241 77.5711 51.1268 77.5711C50.9326 77.5711 50.8126 77.6915 50.7783 77.938L50.5898 79.1764H51.498L51.3781 79.8873H50.4813L50.0415 82.7712H49.2761L49.7102 79.8873H49.002L49.1105 79.1764H49.8187L50.0244 77.8291C50.0701 77.5138 50.1957 77.2672 50.3956 77.0838C50.5956 76.9003 50.8526 76.8086 51.1553 76.8086C51.3609 76.8086 51.5951 76.8545 51.8464 76.9405Z" fill="white"/>
<path d="M55.3538 79.1824H56.1191L55.5937 82.7714H54.8226L54.8797 82.3873C54.5255 82.7141 54.1486 82.8746 53.743 82.8746C53.2632 82.8746 52.8463 82.6912 52.4921 82.3185C52.138 81.9516 51.9609 81.5101 51.9609 81.0056C51.9609 80.5011 52.1437 80.0309 52.515 79.6525C52.8863 79.2742 53.3261 79.085 53.8401 79.085C54.4456 79.085 54.914 79.3774 55.2395 79.9564L55.3538 79.1767V79.1824ZM55.1596 80.9024C55.1596 80.5813 55.0453 80.3061 54.8111 80.0711C54.577 79.8417 54.3028 79.7214 53.9886 79.7214C53.6745 79.7214 53.3775 79.8475 53.1376 80.0997C52.9034 80.352 52.7834 80.6616 52.7834 81.0171C52.7834 81.3725 52.892 81.6649 53.1147 81.8942C53.3375 82.1236 53.6174 82.2382 53.9544 82.2382C54.2914 82.2382 54.5827 82.1121 54.8111 81.8598C55.0396 81.6076 55.1538 81.2865 55.1538 80.8967L55.1596 80.9024Z" fill="white"/>
<path d="M59.6948 81.774L59.5577 82.6856C59.175 82.8117 58.8837 82.8805 58.6895 82.8805C58.204 82.8805 57.7928 82.697 57.4558 82.3301C57.1188 81.9632 56.9531 81.516 56.9531 80.9771C56.9531 80.4381 57.1359 80.0081 57.5015 79.6412C57.867 79.2743 58.3068 79.0908 58.8209 79.0908C59.1979 79.0908 59.5806 79.1998 59.9747 79.4176L59.8547 80.2317C59.4378 79.9795 59.1008 79.8533 58.8323 79.8533C58.5239 79.8533 58.2611 79.968 58.0441 80.1916C57.827 80.4152 57.7128 80.6847 57.7128 81.0057C57.7128 81.3038 57.8099 81.5618 58.0041 81.7797C58.1983 81.9976 58.4268 82.1065 58.6895 82.1065C58.9408 82.1065 59.2721 81.9976 59.6948 81.7797V81.774Z" fill="white"/>
<path d="M61.6541 77.5771H62.4195L62.1796 79.1825H62.8422L62.7451 79.8934H62.0768L61.6484 82.7772H60.8716L61.3057 79.8934H60.7402L60.843 79.1825H61.4085L61.6484 77.5771H61.6541Z" fill="white"/>
<path d="M63.6588 79.1826H64.4356L64.0758 81.4702L64.0644 81.5906C64.0644 81.9518 64.2928 82.1352 64.7441 82.1352C64.984 82.1352 65.1953 82.0664 65.3724 81.9288C65.5494 81.7912 65.6522 81.6192 65.6865 81.4186L66.0292 79.1883H66.7832L66.4462 81.43C66.3834 81.8715 66.1892 82.227 65.8693 82.4907C65.5494 82.7544 65.1496 82.8863 64.6698 82.8863C64.2928 82.8863 63.9673 82.7716 63.7045 82.5423C63.4418 82.313 63.3047 82.032 63.3047 81.711C63.3047 81.5218 63.3161 81.3612 63.3447 81.2294C63.3675 81.0975 63.3847 81.0172 63.3904 80.9886L63.6588 79.1941V79.1826Z" fill="white"/>
<path d="M67.3086 82.7707L67.8455 79.1817H68.628L68.5138 79.9442C68.5423 79.8869 68.6223 79.7608 68.7651 79.5658C68.9079 79.3709 69.0393 79.2448 69.1707 79.1874C69.2963 79.1244 69.462 79.0957 69.6619 79.0957C69.8161 79.0957 70.0103 79.1358 70.2445 79.2104L69.8903 79.9557C69.6847 79.8697 69.5019 79.8296 69.3534 79.8296C69.0621 79.8296 68.8394 79.9213 68.6794 80.1105C68.5195 80.2997 68.411 80.615 68.3367 81.0679L68.0797 82.7764H67.3086V82.7707Z" fill="white"/>
<path d="M74.2081 81.1654H71.3465C71.3865 81.5266 71.5007 81.8018 71.6949 81.9967C71.8891 82.1859 72.1404 82.2834 72.4546 82.2834C72.7687 82.2834 73.1286 82.0942 73.4941 81.7158L73.934 82.1572C73.5513 82.6331 73.0543 82.8739 72.4546 82.8739C71.9177 82.8739 71.4779 82.7019 71.1352 82.3636C70.7924 82.0254 70.6211 81.5839 70.6211 81.0565C70.6211 80.529 70.8096 80.0474 71.1866 79.669C71.5635 79.2849 72.0262 79.0957 72.5631 79.0957C73.0201 79.0957 73.4142 79.262 73.7398 79.6002C74.0653 79.9385 74.2253 80.3455 74.2253 80.8271C74.2253 80.9475 74.2195 81.0622 74.2081 81.1654ZM71.4036 80.5978H73.517C73.397 80.0073 73.0658 79.7149 72.5117 79.7149C72.2375 79.7149 71.9976 79.7952 71.7977 79.9499C71.5978 80.1047 71.4664 80.3226 71.4036 80.5978Z" fill="white"/>
<path d="M74.791 82.7707L75.3279 79.1817H76.1104L75.9962 79.9442C76.0248 79.8869 76.1047 79.7608 76.2475 79.5658C76.3903 79.3709 76.5217 79.2448 76.6531 79.1874C76.7787 79.1244 76.9444 79.0957 77.1443 79.0957C77.2985 79.0957 77.4927 79.1358 77.7269 79.2104L77.3728 79.9557C77.1671 79.8697 76.9844 79.8296 76.8359 79.8296C76.5445 79.8296 76.3218 79.9213 76.1619 80.1105C76.0019 80.2997 75.8934 80.615 75.8191 81.0679L75.5621 82.7764H74.791V82.7707Z" fill="white"/>
<path d="M82.1014 77.0605H82.8724L82.0328 82.7708H81.2617L82.1014 77.0605Z" fill="white"/>
<path d="M83.5135 82.7707L84.039 79.1817H84.8044L84.7187 79.8181C84.9586 79.5716 85.1814 79.3881 85.3756 79.2734C85.5755 79.153 85.7925 79.0957 86.0324 79.0957C86.2952 79.0957 86.5294 79.2046 86.735 79.4168C86.9406 79.6289 87.0434 79.8754 87.0434 80.1449C87.0434 80.2079 87.0434 80.2653 87.032 80.2997L86.655 82.7707H85.9011L86.2438 80.4831C86.2495 80.4545 86.2552 80.4029 86.2552 80.3341C86.2552 80.1506 86.2038 80.0016 86.0953 79.8926C85.9867 79.778 85.8497 79.7206 85.6726 79.7206C85.3984 79.7206 85.1471 79.864 84.9301 80.1506C84.713 80.4373 84.5645 80.8157 84.4902 81.2858L84.2732 82.765H83.5078L83.5135 82.7707Z" fill="white"/>
<path d="M87.6423 82.1809L88.065 81.6477C88.2363 81.8312 88.3905 81.963 88.5333 82.049C88.6761 82.135 88.8303 82.1809 89.0074 82.1809C89.1502 82.1809 89.2759 82.1465 89.373 82.0777C89.4701 82.0089 89.5215 81.9229 89.5215 81.8254C89.5215 81.6649 89.3615 81.4986 89.0417 81.3209C88.7218 81.1432 88.5048 80.9712 88.3734 80.8049C88.242 80.6387 88.1792 80.4323 88.1792 80.1915C88.1792 79.8876 88.2991 79.6296 88.5333 79.4118C88.7675 79.1939 89.0474 79.085 89.373 79.085C89.6814 79.085 90.047 79.2398 90.4696 79.5494L90.047 80.0825C89.7442 79.8761 89.5043 79.7672 89.3273 79.7672C89.1959 79.7672 89.0874 79.8073 88.996 79.8876C88.9046 79.9679 88.8646 80.0653 88.8646 80.1857C88.8646 80.2832 88.9046 80.3749 88.9789 80.4495C89.0531 80.5297 89.213 80.6329 89.4529 80.7648C89.6928 80.8967 89.8756 81.0457 90.0013 81.2063C90.1269 81.3668 90.1898 81.5674 90.1898 81.7968C90.1898 82.1006 90.0755 82.3529 89.8413 82.5593C89.6129 82.76 89.3158 82.8632 88.9617 82.8632C88.7104 82.8632 88.4819 82.8058 88.2763 82.6969C88.0707 82.588 87.8593 82.4102 87.6309 82.1752L87.6423 82.1809Z" fill="white"/>
<path d="M92.1658 77.5771H92.9312L92.6913 79.1825H93.3539L93.2568 79.8934H92.5885L92.1601 82.7772H91.3833L91.8174 79.8934H91.252L91.3548 79.1825H91.9202L92.1601 77.5771H92.1658Z" fill="white"/>
<path d="M97.0784 79.1824H97.8438L97.3183 82.7714H96.5472L96.6043 82.3873C96.2502 82.7141 95.8732 82.8746 95.4676 82.8746C94.9878 82.8746 94.5709 82.6912 94.2167 82.3185C93.8626 81.9516 93.6855 81.5101 93.6855 81.0056C93.6855 80.5011 93.8683 80.0309 94.2396 79.6525C94.6109 79.2742 95.0507 79.085 95.5647 79.085C96.1702 79.085 96.6386 79.3774 96.9641 79.9564L97.0784 79.1767V79.1824ZM96.8842 80.9024C96.8842 80.5813 96.7699 80.3061 96.5357 80.0711C96.3016 79.8417 96.0274 79.7214 95.7132 79.7214C95.3991 79.7214 95.1021 79.8475 94.8622 80.0997C94.628 80.352 94.5081 80.6616 94.5081 81.0171C94.5081 81.3725 94.6166 81.6649 94.8393 81.8942C95.0621 82.1236 95.342 82.2382 95.679 82.2382C96.016 82.2382 96.3073 82.1121 96.5357 81.8598C96.7642 81.6076 96.8785 81.2865 96.8785 80.8967L96.8842 80.9024Z" fill="white"/>
<path d="M99.4382 76.8145H100.209L99.3297 82.7713H98.5586L99.4439 76.8145H99.4382Z" fill="white"/>
<path d="M101.643 76.8145H102.414L101.535 82.7713H100.764L101.649 76.8145H101.643Z" fill="white"/>
<path d="M106.452 81.1654H103.591C103.631 81.5266 103.745 81.8018 103.939 81.9967C104.133 82.1859 104.385 82.2834 104.699 82.2834C105.013 82.2834 105.373 82.0942 105.738 81.7158L106.178 82.1572C105.795 82.6331 105.298 82.8739 104.699 82.8739C104.162 82.8739 103.722 82.7019 103.379 82.3636C103.037 82.0254 102.865 81.5839 102.865 81.0565C102.865 80.529 103.054 80.0474 103.431 79.669C103.808 79.2849 104.27 79.0957 104.807 79.0957C105.264 79.0957 105.658 79.262 105.984 79.6002C106.309 79.9385 106.469 80.3455 106.469 80.8271C106.469 80.9475 106.464 81.0622 106.452 81.1654ZM103.648 80.5978H105.761C105.641 80.0073 105.31 79.7149 104.756 79.7149C104.482 79.7149 104.242 79.7952 104.042 79.9499C103.842 80.1047 103.711 80.3226 103.648 80.5978Z" fill="white"/>
<path d="M107.035 82.7707L107.572 79.1817H108.355L108.24 79.9442C108.269 79.8869 108.349 79.7608 108.492 79.5658C108.634 79.3709 108.766 79.2448 108.897 79.1874C109.023 79.1244 109.189 79.0957 109.388 79.0957C109.543 79.0957 109.737 79.1358 109.971 79.2104L109.617 79.9557C109.411 79.8697 109.228 79.8296 109.08 79.8296C108.789 79.8296 108.566 79.9213 108.406 80.1105C108.246 80.2997 108.138 80.615 108.063 81.0679L107.806 82.7764H107.035V82.7707Z" fill="white"/>
<path d="M0.0563455 54.0934C0.0563455 51.8345 0.0563455 49.6673 0.0563455 47.5059C0.0563455 43.6933 0.0620574 39.8749 0.0449219 36.0623C0.0449219 35.598 0.159158 35.4432 0.644664 35.4489C4.14601 35.4718 7.65308 35.4661 11.1544 35.4489C11.5942 35.4489 11.7142 35.5865 11.7142 36.0107C11.697 38.304 11.7085 40.5916 11.7085 42.8849C11.7085 43.5442 11.7199 43.5614 12.3539 43.5557C15.7467 43.5385 19.151 43.6703 22.5267 43.4582C27.0105 43.1773 30.8602 41.3943 33.7333 37.7995C35.0641 36.1311 35.9266 34.2334 36.4807 32.1637C37.1661 29.601 37.246 26.9981 36.8576 24.4354C36.0523 19.0748 33.2992 15.0157 28.3527 12.6192C27.0447 11.9885 25.651 11.6273 24.2174 11.3464C22.818 11.0769 21.4243 11.1056 20.0192 11.0884C19.8821 11.0884 19.745 11.0884 19.5737 11.0884V0.510574C20.0135 0.510574 20.4304 0.493374 20.8474 0.510574C22.1611 0.567906 23.4805 0.55644 24.7771 0.71697C26.1594 0.883234 27.5359 1.15843 28.8954 1.48522C33.0878 2.50001 36.8691 4.36331 40.1762 7.15539C42.8208 9.38562 44.8713 12.0974 46.4764 15.1532C47.8186 18.4728 48.7211 22.0446 48.921 23.5868C49.1723 25.5075 49.3151 27.2962 49.0695 29.343C48.9839 30.2718 48.9439 31.2178 48.7611 32.1293C48.5155 33.3448 48.2128 34.5602 47.8244 35.7413C47.4074 36.9969 46.939 38.241 46.3621 39.4278C44.8828 42.4721 42.8265 45.0807 40.2619 47.2937C38.1885 49.0825 35.8866 50.4872 33.3906 51.5937C31.5057 52.425 29.5522 53.0442 27.5417 53.4398C25.4111 53.8583 23.2521 54.0876 21.0702 54.0876C14.2502 54.0762 7.43603 54.0934 0.616105 54.0991C0.450462 54.0991 0.279107 54.0991 0.0563455 54.0991V54.0934Z" fill="white"/>
<path d="M4.94563 3.65203C6.05373 3.65203 7.16753 3.67496 8.27563 3.6463C9.02388 3.62337 9.73786 4.09922 9.72643 5.09107C9.69787 7.22384 9.72643 9.36233 9.7093 11.4951C9.70359 12.0569 9.86923 12.4869 10.2862 12.8596C10.7717 13.2953 11.2286 13.7712 11.6856 14.247C11.9997 14.5738 12.3539 14.7172 12.8051 14.7172C14.5586 14.7 16.3065 14.7114 18.06 14.7172C19.2595 14.7172 19.7393 15.193 19.7393 16.3913C19.7393 18.117 19.7393 19.8427 19.7393 21.5684C19.7393 22.6978 19.2309 23.2024 18.1057 23.2024C16.4493 23.2024 14.7871 23.2654 13.1364 23.1794C12.1482 23.1278 11.5314 23.6266 10.9259 24.2515C10.8288 24.3547 10.7603 24.4866 10.646 24.5669C9.86352 25.1173 9.62362 25.8626 9.69787 26.8086C9.77213 27.7144 9.72072 28.626 9.7093 29.5376C9.69787 30.4606 9.25806 30.9365 8.34417 30.9537C7.09328 30.9766 5.84239 30.9766 4.5915 30.9537C3.67761 30.9365 3.20924 30.4205 3.20924 29.4917C3.20924 28.282 3.20924 27.0723 3.20924 25.8683C3.20924 24.9969 3.78042 24.4293 4.64291 24.4235C5.87666 24.4235 7.11613 24.4522 8.34988 24.4063C8.68688 24.3949 9.07528 24.2229 9.34374 24.005C9.91492 23.5291 10.4404 22.996 10.9373 22.4513C11.1201 22.2506 11.2686 21.941 11.2743 21.683C11.3029 19.8484 11.3029 18.008 11.2743 16.1734C11.2743 15.9039 11.1315 15.5886 10.9488 15.3822C10.4233 14.7974 9.83496 14.2642 9.28662 13.6967C8.97818 13.3813 8.61834 13.2724 8.18995 13.2724C6.04802 13.2781 3.90608 13.2724 1.76415 13.2724C0.593222 13.2724 0.119141 12.7908 0.119141 11.6212C0.119141 9.47126 0.119141 7.3213 0.119141 5.17134C0.119141 4.17376 0.616069 3.66923 1.60422 3.6635C2.71231 3.65776 3.82612 3.6635 4.93421 3.6635L4.94563 3.65203Z" fill="#EE2626"/>
<path d="M52.4113 37.415C52.4113 33.5107 52.3885 29.6006 52.4113 25.6963C52.4913 13.9374 61.1733 3.73229 70.6663 1.14087C83.3923 -2.33921 94.6331 2.22445 100.842 13.7081C102.75 17.2398 103.955 21.5856 104.229 25.6504C104.783 33.9063 104.503 42.2309 104.532 50.5269C104.543 53.8006 104.492 53.8178 101.379 53.8178C99.037 53.8178 96.6837 53.7031 94.3533 53.8579C92.4398 53.9898 91.7715 53.3534 91.8001 51.2321C91.9029 43.4235 91.9315 35.6091 91.8172 27.7947C91.6744 17.9966 83.2438 11.3862 74.3562 13.9604C69.2269 15.4453 65.0116 21.1384 64.9773 26.8085C64.9259 34.9497 64.9145 43.0967 65.0002 51.2436C65.0173 53.1699 64.5318 53.9497 62.6241 53.8407C59.8938 53.6917 57.1521 53.749 54.4219 53.8293C52.8854 53.8751 52.3485 53.1986 52.3656 51.6162C52.417 46.8806 52.3828 42.1449 52.3828 37.4036H52.417L52.4113 37.415Z" fill="white"/>
<path d="M136.605 14.9691C134.12 13.834 132.035 12.4121 129.785 12.0051C127.957 11.6725 125.729 12.1197 124.044 13.0084C121.314 14.4532 121.491 18.025 124.301 19.3092C126.535 20.324 129.008 20.7253 131.367 21.4248C133.8 22.1471 136.285 22.7377 138.638 23.6837C142.516 25.2374 144.464 28.6945 145.481 32.702C147.583 40.998 143.048 49.6724 135.359 52.5791C125.061 56.472 115.951 53.4907 106.932 47.4651C109.393 44.1054 111.627 41.0439 113.934 37.8906C117.504 41.0439 121.228 43.2569 125.821 42.9874C126.946 42.9187 128.071 42.5689 129.168 42.2307C131.281 41.5771 132.903 40.1724 132.618 37.7071C132.332 35.2246 130.43 34.1927 128.237 33.6423C124.581 32.725 120.868 31.9395 117.339 30.6151C112.529 28.8092 109.696 25.0367 109.079 19.5271C108.337 12.9281 110.233 7.56181 115.556 3.82947C124.187 -2.21909 137.581 0.716327 143.83 6.67316C143.99 6.82795 144.081 7.06301 144.361 7.52167C141.66 10.1131 138.952 12.7102 136.599 14.9634L136.605 14.9691Z" fill="white"/>
</g>
<defs>
<clipPath id="clip0_612_129">
<rect width="146" height="83" fill="white"/>
</clipPath>
</defs>
</svg>
