<svg width="70" height="64" viewBox="0 0 70 64" fill="none" xmlns="http://www.w3.org/2000/svg">
<g clip-path="url(#clip0_1_320)">
<path d="M32.976 0C34.3648 0 35.7537 0 37.1428 0C38.0407 0.104383 38.9388 0.205793 39.8363 0.313479C44.3301 0.852902 48.5312 2.1927 52.4491 4.25526C57.0924 6.69934 60.9344 9.95305 63.9443 14.0104C66.9948 18.1227 68.9226 22.6362 69.6495 27.568C69.7764 28.4272 69.8837 29.289 70 30.1495V33.9592C69.9671 34.0589 69.9191 34.157 69.9035 34.2591C69.6777 35.7446 69.5726 37.2545 69.2153 38.7129C67.1432 47.1702 62.1668 53.8478 54.3 58.6877C49.8799 61.4069 44.9999 63.0629 39.7127 63.6994C38.8568 63.8025 37.9998 63.8999 37.1432 64H32.9764C31.8018 63.8623 30.6211 63.7599 29.4541 63.5811C20.1512 62.1571 12.6431 57.9874 6.95599 51.1249C3.33221 46.752 1.13663 41.8133 0.33781 36.3663C0.220389 35.5646 0.112362 34.7615 0 33.9592C0 32.6894 0 31.4196 0 30.1495C0.0350455 29.9744 0.0729814 29.7997 0.104775 29.624C0.45776 27.681 0.636239 25.6957 1.19155 23.8023C3.56272 15.7182 8.67431 9.42255 16.3814 4.9136C20.5739 2.46093 25.1605 0.939447 30.098 0.323389C31.0558 0.203811 32.0168 0.107356 32.976 0ZM66.5135 31.9865C66.4738 16.4228 52.8042 3.24578 35.03 3.20218C18.0351 3.16023 3.81346 15.5726 3.49949 31.5461C3.18661 47.4612 17.1701 60.6026 34.6438 60.7958C52.0025 60.9878 66.4268 48.2438 66.5135 31.9865Z" fill="#FF0000"/>
<path d="M41.5987 48.3399C38.4847 48.4093 35.8346 47.301 33.3214 45.8661C29.189 43.5066 25.9434 40.2928 23.0538 36.7597C21.1906 34.4814 19.6739 32.0175 18.8722 29.2524C17.8461 25.7142 18.1724 22.3139 20.4702 19.2081C21.4638 17.8654 22.8948 16.92 24.3097 15.9977C25.3404 15.3258 26.6794 15.5015 27.5852 16.4562C28.5524 17.4752 29.4122 18.5944 30.1948 19.7409C30.7317 20.5275 31.1696 21.4055 31.4485 22.2957C31.8416 23.5506 31.5135 24.7015 30.3455 25.5653C29.7139 26.0323 29.1048 26.5291 28.4432 26.9576C26.8738 27.9737 26.5226 29.1437 27.3117 30.7553C27.9826 32.1262 28.9375 33.4022 29.9148 34.6208C31.3289 36.3841 33.0812 37.863 35.0564 39.1056C35.7811 39.5615 36.5604 39.9021 37.4799 39.8743C38.5638 39.8419 39.307 39.2553 40.0122 38.6022C40.4295 38.2157 40.815 37.7972 41.2587 37.4388C42.6125 36.3448 44.2726 36.1261 45.8171 36.9592C47.7562 38.0053 49.4474 39.3666 50.9211 40.9112C52.1019 42.1486 51.9447 43.3725 50.6115 44.4972C49.6234 45.331 48.6519 46.208 47.5438 46.8904C45.7554 47.9921 43.6978 48.3769 41.5987 48.3399Z" fill="#FF0000"/>
</g>
<defs>
<clipPath id="clip0_1_320">
<rect width="70" height="64" fill="white"/>
</clipPath>
</defs>
</svg>
