<svg width="139" height="106" viewBox="0 0 139 106" fill="none" xmlns="http://www.w3.org/2000/svg">
<path d="M90.4657 20.5087C90.5163 31.9837 81.1294 41.3408 69.6316 41.2769C58.2441 41.213 49.0458 32.0522 48.9538 20.6822C48.8618 9.33953 58.0279 0.091974 69.4522 0.000685152C81.1478 -0.0906037 90.4151 8.95155 90.4657 20.5087Z" fill="#676767"/>
<path d="M69.7139 55.2266C72.2849 60.3753 74.6212 64.8073 76.7092 69.3535C77.6613 71.4258 78.972 72.2428 81.244 72.4801C86.1513 72.9914 91.0218 73.8495 96.0854 74.5935C92.4061 78.3728 88.9246 82.1065 85.2545 85.6394C83.7505 87.0864 83.1848 88.3644 83.6448 90.5097C84.6888 95.4028 85.3648 100.378 86.3031 106.001C81.3728 103.445 76.8932 101.286 72.593 98.8261C70.4866 97.6211 68.8447 97.7124 66.7843 98.8763C62.5209 101.282 58.1057 103.427 53.1754 105.983C54.109 100.291 55.0703 95.2613 55.6727 90.1902C55.8337 88.8437 55.2588 87.0316 54.362 86.0046C50.9724 82.1385 47.3115 78.5143 43.5586 74.5935C48.3187 73.8814 53.2076 72.9549 58.1425 72.4938C60.6306 72.2611 61.8678 71.2249 62.852 69.0888C64.8986 64.643 67.1844 60.3022 69.7231 55.2266H69.7139Z" fill="#676767"/>
<path d="M108.59 50.5158C104.303 47.9415 100.307 45.536 96.0156 42.9617C100.661 39.2325 104.841 35.2341 111.887 37.7354C114.647 38.7167 118.257 38.3927 121.201 37.6167C129.106 35.5399 138.351 41.6973 138.944 49.895C139.022 50.9449 138.981 51.9993 138.985 53.0536C138.985 58.3621 135.256 61.3153 129.916 61.2194C123.679 61.1053 119.646 58.855 117.678 52.7159C116.597 49.3382 114.532 46.2663 112.678 42.5919C111.142 45.568 109.877 48.0191 108.59 50.5158Z" fill="#676767"/>
<path d="M43.6506 43.1345C40.9831 44.5176 38.8399 45.4989 36.8393 46.7039C34.9352 47.8496 33.1784 49.2281 31.003 50.7571C29.6692 48.2011 28.3493 45.6724 26.735 42.5777C24.141 47.7629 21.6667 52.4871 19.4177 57.3162C18.4611 59.3702 17.2101 60.2512 14.8967 60.4383C10.5138 60.7989 6.025 62.538 2.27209 58.6764C1.65121 58.0374 0.717581 57.4532 0.51062 56.6864C-1.91773 47.6898 4.67285 37.9904 14.0643 36.7306C15.0301 36.6028 16.0741 37.2053 17.0951 37.2829C20.5537 37.5477 24.3986 38.7846 27.4064 37.7257C34.5213 35.2198 38.6881 39.2045 43.6506 43.1391V43.1345Z" fill="#676767"/>
<path d="M124.467 88.2494C120.756 86.3414 117.927 84.6663 114.915 83.443C113.636 82.9227 111.787 82.8998 110.518 83.4202C107.391 84.6982 104.452 86.419 100.915 88.2311C101.536 84.47 102.299 81.2201 102.52 77.9292C102.617 76.4503 102.005 74.6017 101.062 73.4423C99.0202 70.9182 96.555 68.7272 93.8691 65.9977C97.2955 65.4865 100.441 64.9068 103.61 64.5873C105.827 64.3636 107.23 63.5101 108.122 61.3876C109.341 58.4892 110.895 55.7323 112.624 52.2861C114.266 55.5041 115.89 58.2245 117.072 61.1229C118.056 63.5329 119.661 64.4047 122.117 64.6284C125.12 64.8977 128.091 65.4774 131.527 65.9886C129.034 68.5127 127.075 70.8543 124.743 72.744C122.586 74.4921 122.273 76.4138 122.807 78.8877C123.423 81.7176 123.828 84.5887 124.463 88.2585L124.467 88.2494Z" fill="#676767"/>
<path d="M38.5401 88.2498C35.707 86.7846 33.1821 85.7667 30.9883 84.2787C27.9667 82.2293 25.313 82.3662 22.3557 84.3746C20.2677 85.7941 17.8807 86.7755 14.9925 88.2863C15.6317 84.4613 16.0365 81.3529 16.7034 78.3039C17.1771 76.1449 16.7723 74.6112 15.0201 73.0867C12.6561 71.0281 10.6233 68.6044 8.09375 65.9662C11.5063 65.4641 14.7487 65.245 17.8347 64.428C19.3985 64.0172 21.1185 62.8167 21.9924 61.4748C23.7584 58.7635 24.9956 55.7145 26.7433 52.2227C28.4818 55.6597 29.7511 58.7361 31.5402 61.4793C32.414 62.8167 34.1295 64.0172 35.6932 64.428C38.7977 65.2404 42.063 65.4595 45.448 65.9479C42.8127 68.682 40.3246 70.9916 38.1998 73.6025C37.3213 74.6843 36.7556 76.4324 36.866 77.8109C37.1374 81.1384 37.887 84.4248 38.5355 88.2452L38.5401 88.2498Z" fill="#676767"/>
<path d="M23.295 33.8419C16.2813 33.8511 10.9509 28.6567 10.8911 21.7599C10.8313 14.79 16.4055 9.18939 23.3364 9.26242C30.1247 9.33089 35.6621 14.8904 35.6483 21.6184C35.6345 28.4103 30.1523 33.8328 23.295 33.8419Z" fill="#676767"/>
<path d="M128.532 21.7277C128.495 28.6383 123.169 33.8509 116.169 33.8372C109.298 33.8235 103.816 28.4283 103.793 21.6501C103.765 14.7852 109.524 9.13897 116.422 9.26678C123.252 9.39458 128.573 14.8673 128.532 21.7277Z" fill="#676767"/>
<path d="M68.4303 49.3062C66.3055 53.5694 64.2359 57.8736 61.9777 62.082C61.6236 62.7393 60.3634 63.3875 59.6184 63.2962C52.1401 62.365 44.6803 61.2878 37.2205 60.2335C34.9439 59.9139 34.3047 58.8094 35.7948 56.9151C40.7481 50.5979 47.587 47.4256 55.2032 45.6272C55.9298 45.4538 56.8175 45.7779 57.5855 46.0061C61.0533 47.0331 64.5118 48.1103 68.4349 49.3107L68.4303 49.3062Z" fill="#676767"/>
<path d="M71.0339 49.3613C75.0673 48.0787 78.7145 46.892 82.38 45.7737C83.0285 45.5774 83.8103 45.4815 84.4542 45.6367C91.8128 47.4397 98.4632 50.5161 103.343 56.5275C105.192 58.8051 104.792 59.8321 101.982 60.2384C94.7563 61.2882 87.531 62.3061 80.2874 63.2281C79.4319 63.3376 77.9694 63.0592 77.6659 62.4978C75.2973 58.1068 73.1403 53.6017 71.0293 49.3568L71.0339 49.3613Z" fill="#676767"/>
</svg>
