<svg width="119" height="113" viewBox="0 0 119 113" fill="none" xmlns="http://www.w3.org/2000/svg">
<path d="M115 81.0933C113.589 83.354 111.996 85.2956 109.314 85.9355C108.083 86.2294 106.273 85.4702 106.023 84.6473C105.834 84.0275 106.848 82.6335 107.896 82.0708C109.366 81.2831 112.871 80.7826 115 81.0933Z" fill="#676767"/>
<path d="M4 81.0028C6.28351 80.9826 8.34732 81.0581 10.3396 81.7134C11.453 82.0788 12.3401 82.7409 12.8578 83.8605C13.1307 84.4504 13.0075 84.8292 12.5166 85.2147C11.5995 85.9354 10.5926 86.1802 9.48076 85.865C6.96091 85.151 5.45133 83.2705 4 81.0028Z" fill="#676767"/>
<path d="M117 74C116.096 76.3758 114.962 78.3629 112.925 79.5379C111.8 80.1876 110.675 80.1582 109.558 79.4118C109.025 79.0558 108.843 78.5876 109.147 78.0623C109.584 77.3055 110.022 76.4381 110.67 75.9612C112.523 74.5944 114.714 74.3335 117 74Z" fill="#676767"/>
<path d="M2 74C4.37705 74.3631 6.63532 74.6712 8.60063 76.1065C8.75266 76.2167 8.8936 76.3526 9.01712 76.4989C9.5999 77.1873 10.2777 78.0599 9.88179 78.9032C9.46054 79.7999 8.38525 80.1699 7.45565 79.9272C6.56723 79.6949 5.6598 79.2526 4.92974 78.6571C3.53455 77.5195 2.68572 75.8983 2.00158 74H2Z" fill="#676767"/>
<path d="M119 67C118.468 68.9934 117.606 70.6813 115.955 71.995C114.567 73.1009 112.981 73.2827 111.516 72.5968C111.088 72.3967 110.949 72.1645 111.016 71.7475C111.205 70.582 111.929 69.7327 113.021 69.0988C114.796 68.0693 116.792 67.5102 119 67Z" fill="#676767"/>
<path d="M0 67C2.30397 67.534 4.4488 68.1155 6.29658 69.3044C7.23019 69.9057 7.79601 70.7044 7.97991 71.7189C8.06301 72.1764 7.88973 72.4151 7.43353 72.6217C5.95708 73.2903 4.39576 73.073 2.98296 71.9668C1.58962 70.8758 0.459733 69.0243 0.00176822 67.0015L0 67Z" fill="#676767"/>
<path d="M110.998 88.3427C109.408 90.1413 107.604 91.6328 105.006 91.9891C104.926 91.9999 104.845 91.9999 104.764 91.9999C103.661 92.0121 102.207 91.2288 102.012 90.5207C101.876 90.0261 102.888 88.8449 103.875 88.4794C104.518 88.2413 105.22 88.0324 105.9 88.014C107.581 87.9694 109.267 88.0432 110.951 88.0708C110.968 88.1614 110.984 88.2536 111 88.3442L110.998 88.3427Z" fill="#676767"/>
<path d="M118.998 59C118.817 61.2461 118.337 63.2006 116.984 64.8054C116.017 65.9519 114.807 66.2596 113.585 65.7867C113.158 65.6216 112.984 65.3609 113.001 64.8864C113.043 63.748 113.468 62.799 114.24 62.0201C115.573 60.6744 117.194 59.8291 119 59H118.998Z" fill="#676767"/>
<path d="M0.293843 59C1.71714 59.9559 3.18023 60.8541 4.54997 61.8885C5.46823 62.5834 5.93807 63.6321 5.99776 64.8522C6.02071 65.3454 5.87073 65.6464 5.39783 65.8065C4.38009 66.1507 3.44347 66.0563 2.58796 65.3566C1.44932 64.4263 0.861632 63.1358 0.480555 61.7348C0.261704 60.9262 0.156104 60.0824 0 59.2546C0.0979475 59.1697 0.195895 59.0865 0.293843 59.0016V59Z" fill="#676767"/>
<path d="M107 94.924C105.268 96.5022 103.356 97.7578 100.934 97.9821C99.74 98.0935 98.6989 97.6907 98.0896 96.5971C97.9501 96.345 97.978 95.8473 98.1422 95.6067C98.9271 94.4557 100.131 93.94 101.463 94.0055C103.302 94.0939 105.131 94.3755 106.964 94.5736C106.975 94.6898 106.987 94.8077 106.997 94.924H107Z" fill="#676767"/>
<path d="M104.15 71.0015C106.014 72.0836 107.682 73.1889 108.639 74.911C109.111 75.7618 109.125 76.6257 108.652 77.5028C108.401 77.9711 108.046 78.07 107.512 77.958C106.26 77.6991 105.359 77.0664 104.813 76.0629C103.952 74.479 103.857 72.818 104.15 71V71.0015Z" fill="#676767"/>
<path d="M102.367 76C103.95 77.4852 105.368 78.9375 105.901 81.0844C106.115 81.9441 105.984 82.7913 105.497 83.5598C105.242 83.9622 104.988 84.0989 104.524 83.9276C103.416 83.5174 102.731 82.697 102.37 81.5418C101.811 79.7501 101.948 77.9552 102.367 76Z" fill="#676767"/>
<path d="M1.0381 51C2.81652 52.2811 4.47681 53.4862 5.46021 55.4312C5.79865 56.102 5.85772 56.9561 5.97745 57.7376C6.11794 58.6522 5.58473 58.9288 4.85516 58.9893C3.73128 59.0827 2.89155 58.5605 2.28012 57.5906C1.04448 55.6352 0.911981 53.4326 1.0381 51Z" fill="#676767"/>
<path d="M117.961 51C118.091 53.4659 117.955 55.6956 116.65 57.6528C115.862 58.8358 114.688 59.2738 113.536 58.8306C113.3 58.7409 112.984 58.3702 113.001 58.1564C113.074 57.2597 113.072 56.2733 113.44 55.5042C114.398 53.5021 116.142 52.3123 117.961 51.0017V51Z" fill="#676767"/>
<path d="M99.8142 82C101.266 83.4832 102.447 84.9679 102.899 86.8536C103.149 87.8932 102.946 88.8596 102.157 89.6843C101.841 90.0151 101.553 90.0898 101.11 89.8901C99.9399 89.3596 99.3567 88.4511 99.128 87.2926C98.7768 85.5152 99.1956 83.8277 99.8126 82.0015L99.8142 82Z" fill="#676767"/>
<path d="M12.9842 65C13.0676 66.8583 12.8312 68.4937 12.0231 69.9988C11.3819 71.1932 10.4208 71.9324 9.01776 71.9983C8.54185 72.0203 8.33017 71.8272 8.18647 71.4003C7.8558 70.4179 7.96705 69.4903 8.50322 68.6271C9.55548 66.9336 11.1609 65.9401 12.9826 65H12.9842Z" fill="#676767"/>
<path d="M101 100.01C99.2365 101.248 97.383 102.069 95.1712 101.995C94.8822 101.986 94.5859 101.933 94.3116 101.85C93.5832 101.633 92.9757 101.164 93.0007 100.518C93.014 100.158 93.6112 99.7302 94.0536 99.4819C95.1845 98.8466 96.457 98.9434 97.6882 99.1839C98.8059 99.4021 99.8971 99.7302 101 100.01Z" fill="#676767"/>
<path d="M106.021 65C107.779 65.9155 109.318 66.8751 110.378 68.4587C111.028 69.4293 111.213 70.4882 110.719 71.5818C110.625 71.7898 110.272 71.9946 110.034 71.9993C108.598 72.0261 107.617 71.2367 106.966 70.0061C106.165 68.4949 105.924 66.8562 106.02 65.0016L106.021 65Z" fill="#676767"/>
<path d="M12 59C11.857 60.7705 11.542 62.3498 10.5349 63.7029C9.85146 64.6224 8.94407 65.0676 7.78383 64.9917C7.37782 64.9654 7.18854 64.8034 7.09317 64.4122C6.80853 63.2285 7.19576 62.2505 7.98611 61.4142C9.07267 60.264 10.4424 59.5765 11.9986 59H12Z" fill="#676767"/>
<path d="M107 59C108.56 59.5838 109.956 60.2741 111.05 61.4578C111.816 62.2853 112.184 63.2442 111.909 64.3986C111.816 64.7854 111.641 64.9635 111.229 64.9912C110.19 65.0598 109.32 64.7299 108.652 63.9374C107.474 62.5378 107.132 60.8477 107 59.0015V59Z" fill="#676767"/>
<path d="M96.5165 87C97.7524 88.5726 98.6837 90.0794 98.9535 91.8355C99.1397 93.0471 98.7811 94.124 97.6219 94.8751C97.3973 95.0204 96.9047 95.0418 96.6558 94.924C95.6027 94.4284 95.1188 93.5809 95.0265 92.5545C94.8525 90.6132 95.5557 88.8525 96.5148 87H96.5165Z" fill="#676767"/>
<path d="M11.9983 53C11.7307 54.7738 11.2411 56.3392 10.1181 57.6742C9.40831 58.5185 8.49191 59.0472 7.28753 58.9967C6.27119 58.9541 5.87481 58.6243 6.03404 57.6853C6.15261 56.9878 6.41009 56.2224 6.86575 55.678C8.12941 54.1646 9.99271 53.5555 12 53.0016L11.9983 53Z" fill="#676767"/>
<path d="M107 53C108.445 53.4454 109.705 54.0046 110.764 55.0171C111.637 55.8512 112.157 56.8858 111.957 58.2032C111.916 58.4717 111.613 58.8161 111.369 58.8982C110.332 59.2441 109.22 58.6913 108.452 57.4987C107.611 56.1908 107.214 54.6996 107 53.0016V53Z" fill="#676767"/>
<path d="M3.43696 44C4.82278 45.3768 6.04263 46.6938 6.68237 48.4364C6.9128 49.0633 7.00465 49.7816 6.99982 50.4567C6.98532 52.1012 6.33108 52.2709 4.80828 51.7105C3.97517 51.4045 3.60132 50.5648 3.34994 49.7284C2.79561 47.876 2.95675 46.027 3.43696 44.0017V44Z" fill="#676767"/>
<path d="M115.562 44C116.05 46.0506 116.207 47.9373 115.632 49.8206C115.155 51.3845 114.203 52.1021 112.903 51.9883C112.473 51.9499 112.245 51.7926 112.137 51.326C111.88 50.2237 111.986 49.1767 112.441 48.1598C113.15 46.5691 114.256 45.3063 115.56 44.0017L115.562 44Z" fill="#676767"/>
<path d="M94.9985 104.645C93.0008 105.53 90.9635 106.269 88.6749 105.905C88.3125 105.848 87.9349 105.703 87.6365 105.502C86.7564 104.907 86.8005 104.144 87.6974 103.607C88.9566 102.852 90.3133 102.883 91.6593 103.258C92.7937 103.574 93.8869 104.028 94.9985 104.42C94.9985 104.496 94.9985 104.571 95 104.647L94.9985 104.645Z" fill="#676767"/>
<path d="M92.8416 92C93.5996 93.7651 94.1476 95.4944 93.9645 97.4185C93.8662 98.4523 93.4071 99.246 92.6518 99.8307C92.3085 100.096 92.0567 100.037 91.7632 99.7434C91.0321 99.0152 90.9217 98.0594 91.0415 97.0521C91.2583 95.2262 91.9449 93.6139 92.8403 92.0016L92.8416 92Z" fill="#676767"/>
<path d="M106 47.0014C107.671 47.2567 109.066 47.6817 110.287 48.4561C111.31 49.1064 111.887 49.962 111.994 51.0488C112.043 51.5507 111.788 51.7846 111.245 51.9073C110.187 52.1469 109.27 51.9144 108.508 51.2997C107.087 50.1546 106.483 48.6671 106 47V47.0014Z" fill="#676767"/>
<path d="M12.9983 46.2342C12.5588 48.0611 11.9294 49.7985 10.5253 51.172C10.4244 51.2698 10.3047 51.349 10.1901 51.4299C9.24432 52.0955 7.86929 52.1933 7.22795 51.6439C6.8517 51.322 6.92524 49.9452 7.56829 49.1346C8.14806 48.4032 8.86978 47.7072 9.67701 47.2454C10.6399 46.6926 11.7601 46.4028 12.8119 46C12.8752 46.0775 12.9367 46.1567 13 46.2342H12.9983Z" fill="#676767"/>
<path d="M88.4824 96.0017C88.9416 97.8722 89.1764 99.5865 88.8436 101.354C88.6294 102.489 88.0838 103.294 87.284 103.851C86.8725 104.138 86.6055 103.992 86.3488 103.568C85.9373 102.892 85.9399 102.13 86.1011 101.364C86.5191 99.3789 87.4246 97.7476 88.4824 96V96.0017Z" fill="#676767"/>
<path d="M112.919 37C113.698 38.8848 114.134 40.6641 113.963 42.5706C113.838 43.9783 113.198 44.8487 112.217 44.9826C111.727 45.0496 111.308 44.9408 111.235 44.3382C111.125 43.4427 110.937 42.5237 111.021 41.6416C111.182 39.9527 111.995 38.5249 112.919 37Z" fill="#676767"/>
<path d="M6.06537 37C7.28446 39.2125 8.45061 41.2738 7.82594 43.8936C7.54915 45.0523 6.67642 45.3681 5.88538 44.5187C5.5012 44.1047 5.19416 43.4697 5.10189 42.8863C4.78124 40.8732 5.24861 38.9798 6.06688 37.0017L6.06537 37Z" fill="#676767"/>
<path d="M30.0016 108.344C31.9879 107.537 33.7921 106.763 36.0353 107.068C36.5085 107.132 36.9724 107.271 37.4114 107.42C38.0761 107.644 38.2131 108.133 37.6403 108.464C37.2417 108.694 36.6985 108.861 36.1894 108.92C34.1206 109.157 32.1358 108.841 30 108.345L30.0016 108.344Z" fill="#676767"/>
<path d="M88.9984 108.044C86.9051 108.749 84.9548 109.198 82.9118 108.913C82.5783 108.867 82.2386 108.792 81.9288 108.662C81.394 108.437 80.8892 108.05 81.0213 107.402C81.0921 107.052 81.5041 106.692 81.847 106.506C82.7482 106.017 83.7218 105.892 84.7393 106.09C86.2571 106.386 87.5876 107.098 89 108.044H88.9984Z" fill="#676767"/>
<path d="M105 40.0001C107.576 39.9872 110.297 41.8984 110.914 44.1536C111.261 45.4209 110.526 46.28 109.25 45.9158C108.542 45.7134 107.85 45.2131 107.312 44.6796C106.288 43.6624 105.349 41.5875 105 40.0001Z" fill="#676767"/>
<path d="M90.8144 16.8368C90.0719 16.9354 89.1917 16.8483 88.6275 17.1851C88.0853 17.507 87.8666 18.2675 87.4017 19C86.9257 17.4511 86.0142 16.5067 84 16.8894C85.507 15.8366 85.8966 14.6934 84.9575 13.1741C86.5508 14.0693 88.0192 14.1218 89.5022 13C88.9509 14.6146 89.3497 15.8382 91 16.6775L90.8144 16.8368Z" fill="#676767"/>
<path d="M10.2973 31C11.0095 33.213 11.4337 35.2703 10.3008 37.3183C10.1364 37.6142 9.67868 38.0378 9.44893 37.9973C8.99649 37.9179 8.42563 37.6298 8.24006 37.2871C7.9944 36.8308 7.96612 36.2297 8.02798 35.7064C8.22946 33.9964 9.13434 32.5325 10.2973 31Z" fill="#676767"/>
<path d="M108.701 31C109.998 32.7765 111.082 34.4113 110.995 36.4066C110.979 36.7934 110.83 37.2294 110.578 37.5422C110.026 38.2232 109.144 38.1231 108.727 37.3835C107.571 35.3281 107.972 33.268 108.701 31.0015V31Z" fill="#676767"/>
<path d="M37.0017 110.674C39.3539 109.281 41.6594 108.496 44.3755 109.363C44.6376 109.446 45.0066 109.696 44.9999 109.862C44.9899 110.096 44.7411 110.417 44.4824 110.53C44.0567 110.719 43.5492 110.819 43.0617 110.876C41.0951 111.105 39.1402 111.005 37 110.674H37.0017Z" fill="#676767"/>
<path d="M82 110.541C79.6293 111.031 77.3296 111.188 75.0215 110.717C74.8067 110.673 74.548 110.621 74.4161 110.499C74.2166 110.312 74.0154 110.064 74.0002 109.834C73.9917 109.697 74.3028 109.48 74.5244 109.407C76.1612 108.871 77.8183 108.848 79.4365 109.435C80.3175 109.755 81.1461 110.168 81.9983 110.54L82 110.541Z" fill="#676767"/>
<path d="M103 34C105.717 34.1018 108.396 35.9507 108.971 37.9109C109.159 38.5505 108.399 39.1821 107.567 38.9514C106.958 38.7828 106.272 38.4693 105.919 38.0382C104.897 36.786 104.026 35.4415 103 34Z" fill="#676767"/>
<path d="M104 26.0015C105.177 27.202 106.08 28.3659 106.672 29.7732C106.807 30.0927 106.914 30.4396 106.961 30.785C107.021 31.2323 107.084 31.7405 106.555 31.9489C106.019 32.1604 105.866 31.669 105.653 31.319C104.695 29.7535 104.366 27.9673 104.001 26L104 26.0015Z" fill="#676767"/>
<path d="M101.266 28.0016C103.187 28.94 104.944 30.0588 105.914 31.9503C106.044 32.2046 106.03 32.7181 105.848 32.8592C105.63 33.0282 105.101 33.0429 104.819 32.915C104.384 32.7181 103.952 32.3998 103.678 32.0324C102.748 30.779 101.887 29.4814 101 28.2001C101.089 28.1329 101.177 28.0673 101.266 28V28.0016Z" fill="#676767"/>
<path d="M44 112.981C46.3171 110.891 50.4962 110.3 52 111.958C49.3801 112.982 46.793 113.05 44 112.981Z" fill="#181818"/>
<path d="M68 111.831C69.024 110.344 73.2088 110.954 75 112.852C73.0503 113.295 68.8401 112.681 68 111.831Z" fill="#181818"/>
<path d="M73 107C72.3869 109.588 68.7598 111.828 67 110.701C68.8045 109.195 70.9394 108.295 73 107Z" fill="#676767"/>
<path d="M52 110.637C50.247 111.899 46.7022 109.672 46 107C48.0613 108.249 49.9661 109.404 52 110.637Z" fill="#676767"/>
<path d="M62.9273 111.838C64.3565 111.98 65.7921 112.053 67 113C65.0459 112.68 63.0933 112.36 61 112.019C62.9368 111.329 64.7217 110.696 66.6775 110C65.6055 111.219 64.298 111.572 62.9273 111.839V111.838Z" fill="#676767"/>
<path d="M58 112.015C55.9023 112.36 53.9511 112.68 52 113C53.2025 112.051 54.6351 111.98 56.063 111.839C54.6998 111.575 53.4058 111.21 52.3199 110C54.2648 110.691 56.0362 111.32 58 112.017V112.015Z" fill="#676767"/>
<path d="M101.624 25.7506C101.75 26.099 101.875 26.4489 102 26.7973C101.932 26.8654 101.864 26.9319 101.795 27C101.515 26.7767 101.198 26.5899 100.967 26.3191C100.656 25.9549 100.384 25.5432 100.143 25.1203C99.7029 24.3476 99.2962 23.5527 99 23C99.6601 23.6603 100.485 24.4854 101.31 25.3104C101.415 25.4576 101.52 25.6033 101.624 25.7506Z" fill="#676767"/>
<path d="M30.6914 88.8818V81.9817H35.5366V82.9672H31.8017V84.7811H35.2011V85.717H31.8017V87.8963H35.6245V88.8818H30.6914Z" fill="#676767"/>
<path d="M38.5626 85.3131L36.3421 81.9817H37.6297L39.3502 84.584H39.3901L41.1202 81.9817H42.4078L40.1777 85.3131L42.5851 88.8818H41.2975L39.4013 86.0326H39.3518L37.4556 88.8818H36.168L38.5658 85.3131H38.5626Z" fill="#676767"/>
<path d="M43.2199 88.8818V81.9817H46.0108C47.5827 81.9817 48.4485 82.7797 48.4485 84.2684C48.4485 85.757 47.5939 86.555 46.0108 86.555H44.3206V88.8818H43.2199ZM44.3206 85.5791H45.9516C46.9149 85.5791 47.3862 85.1449 47.3862 84.2684C47.3862 83.3918 46.9149 82.9672 45.9516 82.9672H44.3206V85.5791Z" fill="#676767"/>
<path d="M49.4208 88.8818V81.9817H54.266V82.9672H50.531V84.7811H53.9305V85.717H50.531V87.8963H54.3538V88.8818H49.4208Z" fill="#676767"/>
<path d="M55.4423 88.8818V81.9817H58.2922C59.8849 81.9817 60.73 82.7412 60.73 84.1802C60.73 85.1561 60.297 85.8259 59.4919 86.1416L60.8977 88.8818H59.7092L58.4312 86.3788C58.3337 86.3884 58.2347 86.3884 58.126 86.3884H56.5445V88.8818H55.4439H55.4423ZM56.5429 82.9576V85.4221H58.2235C59.2251 85.4221 59.6676 85.0375 59.6676 84.1898C59.6676 83.3422 59.2059 82.9576 58.2235 82.9576H56.5429Z" fill="#676767"/>
<path d="M61.8003 81.9796H62.9298V88.8797H61.8003V81.9796Z" fill="#676767"/>
<path d="M64.2958 88.8818V81.9817H69.141V82.9672H65.4061V84.7811H68.8056V85.717H65.4061V87.8963H69.2289V88.8818H64.2958Z" fill="#676767"/>
<path d="M70.3201 81.9796H71.3121L74.8985 87.0561H74.9272V81.9796H76.0279V88.8797H75.0263L71.4495 83.8032H71.4207V88.8797H70.3201V81.9796Z" fill="#676767"/>
<path d="M80.3337 81.8821C82.083 81.8821 83.1533 82.7394 83.2811 84.2473H82.19C82.0814 83.3708 81.4232 82.8868 80.3321 82.8868C78.888 82.8868 78.15 83.7441 78.15 85.4299C78.15 87.1157 78.896 87.973 80.3417 87.973C81.4232 87.973 82.0814 87.4906 82.1884 86.6125H83.2795C83.1517 88.1108 82.0702 88.9777 80.3321 88.9777C78.2394 88.9777 77.0892 87.7262 77.0892 85.4283C77.0892 83.1304 78.2394 81.8789 80.3321 81.8789L80.3337 81.8821Z" fill="#676767"/>
<path d="M84.2722 88.8818V81.9817H89.1174V82.9672H85.3825V84.7811H88.782V85.717H85.3825V87.8963H89.2053V88.8818H84.2722Z" fill="#676767"/>
<path d="M61.167 29.0188H86.5335V36.5647H71.8957V44.6265C72.0251 44.5336 72.105 44.4967 72.1577 44.4358C74.4709 41.8158 77.4486 41.1668 80.7554 41.5434C81.4423 41.6219 82.1325 41.7678 82.7938 41.9697C85.6645 42.843 87.5064 44.7755 88.0911 47.7016C88.5176 49.8344 88.8132 52.0265 88.8467 54.1962C88.9106 58.4298 88.8483 62.6715 88.655 66.9003C88.4649 71.0346 86.6454 74.2555 82.7778 76.0806C80.9248 76.954 78.9439 77.3065 76.9166 77.4475C73.8047 77.6638 70.7567 77.3898 67.8142 76.2713C64.2693 74.9237 62.0248 72.4623 61.2165 68.703C60.5152 65.4437 60.536 62.1475 60.5695 58.7968H72.3782C72.3782 59.0548 72.3734 59.2984 72.3782 59.5419C72.4277 62.0545 72.4692 64.5688 72.5347 67.0814C72.5475 67.5669 72.6178 68.0589 72.7296 68.5316C73.0172 69.7398 73.9501 70.384 75.1498 70.2446C76.2569 70.1164 76.9869 69.2975 76.9949 68.0829C77.0237 62.891 77.0444 57.6991 77.0349 52.5073C77.0349 51.7717 76.9214 51.0186 76.7393 50.3055C76.4518 49.171 75.6898 48.6774 74.5188 48.7287C73.5172 48.772 72.6577 49.4803 72.4932 50.5154C72.3702 51.2878 72.3782 52.081 72.3255 52.9063H60.6909C60.8491 44.963 61.0072 37.0358 61.167 29.0188Z" fill="#676767"/>
<path d="M43.0516 68.5156H56.0313V76.5517H30.0097C30.0097 76.3579 30.0097 76.1351 30.0097 75.9124C30.0241 74.2122 30.0656 72.512 30.0385 70.8134C30.0273 70.1308 30.2094 69.5683 30.5545 68.9867C34.577 62.21 38.5978 55.4333 42.5708 48.6294C43.9319 46.2994 45.0837 43.8573 45.7322 41.2133C46.0421 39.9522 46.1028 38.6799 45.7977 37.4123C45.467 36.0423 44.5868 35.334 43.2881 35.3372C42.0277 35.3404 41.1538 36.015 40.8982 37.4219C40.6842 38.6045 40.6282 39.8208 40.5819 41.0258C40.5308 42.3687 40.5707 43.7131 40.5707 45.0912H29.9043C30.0353 42.7244 30.1423 40.3864 30.3037 38.0517C30.4027 36.6175 30.8628 35.2795 31.5465 34.0152C33.1616 31.0314 35.6233 29.163 38.9317 28.4884C42.6714 27.7256 46.3952 27.8506 49.9432 29.3233C54.3715 31.1612 56.6974 34.6465 57.0536 39.3929C57.3843 43.798 56.0472 47.841 53.8043 51.5378C50.5966 56.8226 47.2179 62.0017 43.9095 67.2256C43.6619 67.6166 43.3983 67.9964 43.0516 68.5188V68.5156Z" fill="#676767"/>
<path d="M63.1567 11.9967C62.1167 11.3937 61.1925 10.901 60.3165 10.3326C59.754 9.96842 59.2943 9.93217 58.7156 10.3128C57.8236 10.901 56.872 11.397 55.8466 11.9901C55.9944 10.7791 56.1118 9.67184 56.2725 8.56955C56.3593 7.97968 56.2757 7.53975 55.7614 7.1509C54.8613 6.46876 54.019 5.70589 53 4.8491C54.0689 4.62831 55.0027 4.34491 55.9543 4.26418C57.0585 4.17026 57.7496 3.72704 58.1499 2.63298C58.4665 1.7696 58.9824 0.983661 59.4968 0C60.0835 1.1303 60.638 2.13868 61.1314 3.17671C61.3982 3.74022 61.7181 4.04833 62.3723 4.13566C63.5521 4.29054 64.7141 4.58547 66 4.84745C64.9938 5.69765 64.1291 6.47206 63.2145 7.17891C62.7371 7.54799 62.6375 7.95826 62.7211 8.52506C62.885 9.63394 63.0023 10.7494 63.1567 12V11.9967Z" fill="#676767"/>
<path d="M80 9.81005C79.2574 10.1475 78.6325 10.4524 77.9939 10.7145C77.5737 10.8875 77.3323 11.1325 77.2834 11.6806C77.2177 12.4104 77.0466 13.1281 76.8953 14C76.4278 13.4416 76.0107 13.003 75.6578 12.5097C75.259 11.9513 74.8205 11.7731 74.2002 12.001C73.6746 12.1945 73.1184 12.2819 72.4248 12.4532C72.7441 11.6378 73.0634 10.9492 73.2773 10.2229C73.3705 9.90598 73.3461 9.45375 73.2086 9.16083C72.8938 8.48763 72.4782 7.87438 72 7.06072C72.8571 7.15322 73.5691 7.28683 74.2796 7.28169C74.6356 7.27826 75.0619 7.11553 75.3277 6.85687C75.838 6.36011 76.2582 5.74515 76.8587 5C77.0512 6.11858 77.1597 6.93224 77.343 7.72535C77.4087 8.01142 77.6089 8.33003 77.8304 8.4842C78.495 8.94499 79.2009 9.33041 79.9985 9.81176L80 9.81005Z" fill="#676767"/>
<path d="M42.3462 5.00175C42.6712 5.44904 43.0268 5.87187 43.315 6.34712C43.8239 7.18579 44.4892 7.32557 45.3123 7.11241C45.8028 6.98486 46.3194 6.99185 47 6.92021C46.6306 7.57018 46.3777 8.11881 46.0389 8.58882C45.5637 9.24927 45.4671 9.8608 45.8871 10.6174C46.1692 11.1258 46.3271 11.7234 46.5923 12.417C45.9163 12.2475 45.3261 12.134 44.7544 11.9487C44.2056 11.7723 43.7871 11.8596 43.4131 12.4013C43.0422 12.9394 42.5946 13.4094 42.1056 14C41.9538 13.1124 41.8634 12.3349 41.6718 11.5888C41.5859 11.2568 41.3468 10.8794 41.0862 10.7239C40.4608 10.35 39.7818 10.0949 39 9.735C39.7434 9.27373 40.3688 8.8509 41.0218 8.49272C41.425 8.27082 41.6503 8.00349 41.7024 7.46185C41.7775 6.68957 41.9523 5.92953 42.0841 5.16424C42.1715 5.11008 42.2604 5.05591 42.3478 5L42.3462 5.00175Z" fill="#676767"/>
<path d="M8 88.3147C10.033 88.0188 11.9127 87.795 13.7925 88.2967C14.7433 88.5505 15.512 89.0882 15.9382 90.0238C16.0408 90.2491 16.0133 90.6681 15.8732 90.8634C15.2158 91.7825 14.2925 92.143 13.2103 91.9492C11.0198 91.5572 9.49112 90.1199 8.00144 88.3162L8 88.3147Z" fill="#676767"/>
<path d="M12 94.8444C14.3062 94.2547 16.4608 93.6666 18.6936 94.2239C19.3044 94.3762 19.9041 94.7812 20.3857 95.2121C21.231 95.9671 21.1847 96.3802 20.365 97.1951C19.7111 97.8447 18.8961 98.0683 18.0238 97.9824C15.6713 97.7508 13.8229 96.5001 12 94.8427V94.8444Z" fill="#676767"/>
<path d="M14.8447 71.0015C15.1497 72.8026 15.0391 74.4466 14.2096 76.0162C13.6634 77.05 12.7484 77.7009 11.4615 77.963C10.9069 78.0766 10.5767 77.9324 10.3354 77.4781C9.80927 76.4894 9.92657 75.543 10.5164 74.6227C11.5101 73.0735 13.0618 72.0222 14.8447 71V71.0015Z" fill="#676767"/>
<path d="M16.6236 76C17.0442 77.878 17.1663 79.5799 16.7089 81.2835C16.3735 82.5344 15.7014 83.4585 14.5072 83.9173C14.0131 84.1075 13.741 83.9661 13.4763 83.5292C12.9247 82.6193 12.8791 81.6559 13.2012 80.6737C13.8292 78.7533 15.144 77.4034 16.6236 76Z" fill="#676767"/>
<path d="M17 99.9387C18.6345 99.6402 20.2574 99.2828 21.9086 99.0589C23.3648 98.8626 24.7328 99.1493 25.7725 100.034C25.9707 100.203 26.0607 100.597 25.9557 100.815C25.5709 101.612 24.7194 101.95 23.6764 101.991C21.1405 102.095 19.0327 101.241 17.01 100.204C17.0067 100.115 17.005 100.026 17.0017 99.9387H17Z" fill="#676767"/>
<path d="M19.1873 82.0015C19.8092 83.8371 20.22 85.5418 19.8736 87.3342C19.6416 88.5374 19.0487 89.5036 17.8129 89.9636C17.5697 90.0544 17.1185 89.9667 16.9268 89.7944C16.0213 88.9851 15.8425 87.942 16.1196 86.8311C16.5868 84.9587 17.7533 83.4847 19.1873 82V82.0015Z" fill="#676767"/>
<path d="M22.4732 87.0015C23.442 88.8027 24.1228 90.5136 23.9814 92.3944C23.8906 93.5927 22.7595 94.9909 21.8727 95C21.0714 95.009 19.956 93.4484 20.0013 92.2697C20.0782 90.3182 21.1535 88.7004 22.4732 87V87.0015Z" fill="#676767"/>
<path d="M23.0017 104.546C24.9624 103.719 26.7773 102.915 28.8537 103.007C29.6547 103.042 30.4893 103.296 31.2133 103.612C32.2054 104.047 32.2724 104.854 31.339 105.411C30.7742 105.748 30.0117 105.962 29.3246 105.991C27.1276 106.081 25.1048 105.478 23 104.547L23.0017 104.546Z" fill="#676767"/>
<path d="M26.2268 92.0079C27.1256 93.7603 27.9766 95.5394 27.9998 97.6646C28.0108 98.7186 27.4425 99.8417 26.8634 99.9912C26.4467 100.1 25.4687 99.1874 25.2501 98.2781C25.0616 97.4916 24.9278 96.6091 25.0425 95.821C25.231 94.5248 25.6408 93.271 25.9577 92C26.0479 92.0016 26.138 92.0047 26.2268 92.0063V92.0079Z" fill="#676767"/>
<path d="M30.5504 96C31.5703 97.6435 32.5022 99.36 32.9241 101.443C33.1383 102.499 32.886 103.68 32.3339 103.923C31.6137 104.238 31.0919 103.529 30.7738 102.893C30.3874 102.121 30.0443 101.173 30.0089 100.281C29.9537 98.8766 30.1705 97.4553 30.2717 96.0407C30.365 96.0271 30.457 96.0136 30.5504 96Z" fill="#676767"/>
<path d="M14 40.0018C13.3444 41.9376 12.7115 43.6916 11.3897 45.0512C10.6727 45.7891 9.85226 46.2399 8.7899 45.8655C8.16406 45.6455 7.80994 45.2293 8.10621 44.5786C8.52168 43.6698 8.9056 42.6701 9.563 41.9703C10.7042 40.7525 12.2469 40.2454 14 40V40.0018Z" fill="#676767"/>
<path d="M30.9394 19C30.5629 17.3745 29.665 16.6127 28 16.9793C28.0221 16.9044 28.0441 16.8279 28.0646 16.753C28.5214 16.2574 29.1751 15.8303 29.3783 15.2454C29.5815 14.6606 29.3342 13.9147 29.2665 13C30.5329 14.2239 31.7726 14.157 33.1399 13.2645C32.3838 14.7147 32.6343 15.8669 34 16.7912C33.1762 16.9347 32.4216 16.8693 31.9459 17.2072C31.4907 17.5291 31.3253 18.2685 30.9394 19Z" fill="#676767"/>
<path d="M83.8705 100C84.081 101.658 84.0702 103.098 83.571 104.494C83.1654 105.63 82.4203 106.417 81.3725 106.875C80.5245 107.246 79.9145 106.763 80.0098 105.775C80.0375 105.481 80.1189 105.178 80.2387 104.911C81.0806 103.031 82.4157 101.572 83.8705 100Z" fill="#676767"/>
<path d="M35.1476 100C36.6604 101.613 38.1034 103.118 38.897 105.149C39.0318 105.495 39.0241 105.965 38.9326 106.336C38.7916 106.912 38.4413 107.156 37.8198 106.897C36.6712 106.418 35.8467 105.623 35.4189 104.399C34.9353 103.016 34.9074 101.595 35.1476 100Z" fill="#676767"/>
<path d="M15 34.16C14.3891 35.2691 13.7952 36.3861 13.1578 37.4795C12.9651 37.8089 12.679 38.0944 12.3961 38.3548C11.6235 39.0655 10.882 39.202 10.3223 38.7C9.62432 38.0756 10.2384 37.4779 10.5011 36.9665C11.4027 35.2173 13.0055 34.4549 14.7901 34C14.8601 34.0533 14.93 34.1067 15 34.16Z" fill="#676767"/>
<path d="M79 104.169C79.0083 106.631 77.4555 108.47 74.905 108.978C74.6548 109.029 74.2256 108.993 74.1162 108.856C73.9638 108.664 73.9952 108.337 74.0234 108.073C74.04 107.924 74.1759 107.759 74.3118 107.648C75.7999 106.427 77.2964 105.215 78.7912 104C78.8608 104.056 78.9304 104.113 79 104.169Z" fill="#676767"/>
<path d="M40.207 104.001C41.7011 105.214 43.1968 106.424 44.6826 107.644C44.8167 107.755 44.9542 107.918 44.9724 108.067C45.0039 108.331 45.0387 108.658 44.8896 108.852C44.7836 108.989 44.3546 109.029 44.1045 108.979C41.557 108.479 40.0116 106.655 40 104.179C40.0679 104.119 40.1375 104.06 40.2054 104L40.207 104.001Z" fill="#676767"/>
<path d="M15 26C14.6412 28.0736 14.2707 29.9562 13.2015 31.5708C13.046 31.805 12.6044 32.0653 12.4315 31.9852C12.2063 31.8804 12.0015 31.446 12 31.1533C12 30.7096 12.1278 30.2397 12.2978 29.8253C12.8833 28.391 13.816 27.2232 15 26.0015V26Z" fill="#676767"/>
<path d="M18 28.0016C17.2234 29.7809 16.3267 31.4373 14.719 32.7005C14.5596 32.825 14.357 32.9741 14.1637 32.9856C13.8204 33.0052 13.359 33.0315 13.1526 32.8627C12.9725 32.7153 12.9575 32.2581 13.0776 32.0173C13.7623 30.6509 14.9573 29.663 16.3623 28.8585C16.8932 28.5538 17.4522 28.2851 17.9981 28L18 28.0016Z" fill="#676767"/>
<path d="M16.932 26.3941L16 27C16.1103 26.5934 16.1133 26.092 16.3489 25.7995C17.136 24.8256 18.006 23.9273 18.8429 23C18.8958 23.053 18.9471 23.1045 19 23.1575C18.5921 23.8871 18.1843 24.6151 17.7764 25.3447L16.932 26.3941Z" fill="#676767"/>
<path d="M17.4334 25.8255C17.7203 25.4804 18.0072 25.1369 18.2956 24.7918C18.8447 24.2141 19.3954 23.6363 20 23C19.8272 24.3407 18.0596 26.7863 17 27C17.1697 26.5441 17.3023 26.1848 17.435 25.8255H17.4334Z" fill="#676767"/>
<path d="M102.044 26.3564C101.94 26.1993 101.835 26.0439 101.73 25.8868C101.154 24.924 100.576 23.9611 100 23C101.235 23.8818 102.339 24.9139 102.977 26.4611C103.036 26.6047 102.964 26.8193 102.952 27C102.787 26.9426 102.601 26.9206 102.46 26.8193C102.301 26.7027 102.181 26.5152 102.044 26.3564Z" fill="#676767"/>
</svg>
