<svg width="51" height="65" viewBox="0 0 51 65" fill="none" xmlns="http://www.w3.org/2000/svg">
<path d="M0 64.9963V61.8439C0.683617 61.7498 1.25149 61.6738 1.85191 61.5905C2.24255 45.5281 2.62957 29.4584 3.02383 13.2006C5.27723 13.2006 7.12191 13.1173 8.94851 13.2657C9.33915 13.2983 9.95043 14.1452 9.97574 14.6447C10.2904 20.8699 10.5111 27.1023 10.7606 33.3311C10.7715 33.57 10.7932 33.8052 10.8294 34.3517C13.1913 33.0198 15.4302 31.7603 17.8753 30.3814V39.3138C23.1489 36.2699 28.1332 33.3962 33.396 30.3596V39.2378C38.684 36.1867 43.614 33.3419 48.7791 30.3633V61.5326C49.6255 61.6195 50.3128 61.6919 51 61.7606V64.9999H0V64.9963ZM17.9802 46.86H9.46213V53.0237H17.9802V46.86ZM29.6957 53.0671V46.8419H21.2608V53.0671H29.6957ZM41.5885 46.7007C38.8721 46.7007 36.3691 46.6646 33.8734 46.7442C33.5406 46.755 32.9655 47.3341 32.9474 47.6743C32.8534 49.4406 32.904 51.214 32.904 52.9838H41.5885V46.7007Z" fill="white"/>
<path d="M22.2096 0.838623C21.5931 5.23501 19.6176 6.95739 15.9678 6.47764C15.1657 6.37147 14.3706 6.21811 13.5684 6.10407C9.43526 5.52601 8.82229 5.87599 6.58057 9.88701C6.7522 8.4163 6.80124 6.9102 7.12348 5.47882C7.71194 2.86773 9.41425 1.67229 11.8276 2.03013C13.1972 2.23461 14.5597 2.52954 15.9223 2.78908C18.9416 3.36714 19.8243 3.1076 22.2096 0.838623Z" fill="white"/>
</svg>
