<svg width="104" height="115" viewBox="0 0 104 115" fill="none" xmlns="http://www.w3.org/2000/svg">
<g clip-path="url(#clip0_1_204)">
<path d="M46.0726 0C48.4012 0.289132 50.7197 0.622225 52.9104 1.5302C58.7832 3.96161 62.7813 8.07371 64.2878 14.4042C64.4239 14.9757 64.4979 15.5624 64.6173 16.2336C64.8998 16.2336 65.2007 16.2336 65.5033 16.2336C70.5472 16.2336 75.5911 16.1829 80.635 16.2539C83.31 16.2911 85.6772 17.2042 87.3619 19.4411C88.3034 20.6924 88.754 22.16 88.7574 23.6936C88.7876 36.0924 88.7775 48.4913 88.7574 60.8901C88.7574 61.2097 88.5993 61.602 88.3841 61.8387C82.3701 68.3906 76.3376 74.9274 70.3102 81.4658C68.5784 83.3443 66.8467 85.2211 65.1234 87.1064C65.0124 87.2265 64.967 87.4074 64.8611 87.6204C62.5897 85.1214 60.4914 82.7931 58.3679 80.4885C56.5101 78.4713 54.7851 76.3291 52.3371 74.9291C49.8538 73.5105 47.2983 72.8662 44.4737 73.5409C43.2665 73.83 42.2409 74.4252 41.3734 75.2943C39.2079 77.4602 37.0222 79.6076 34.9054 81.8209C33.1518 83.6554 31.8337 85.747 31.5849 88.3762C31.3881 90.4492 32.0707 92.2026 33.5116 93.6465C40.072 100.217 46.6476 106.771 53.2164 113.333C53.2551 113.372 53.282 113.422 53.3761 113.549C53.1324 113.578 52.9373 113.619 52.7423 113.619C37.8359 113.622 22.9279 113.669 8.02147 113.59C3.75602 113.568 -0.00167897 110.888 2.3268e-06 105.525C0.0168153 78.4713 0.0184966 51.4198 2.3268e-06 24.3665C-0.00336027 19.0523 3.63833 16.3486 8.06519 16.259C13.1074 16.1559 18.153 16.2353 23.1952 16.2353C23.5012 16.2353 23.8055 16.2353 23.9686 16.2353C24.5318 14.4228 24.8815 12.6068 25.6398 10.987C28.2256 5.45799 32.6911 2.18286 38.5051 0.710148C39.8804 0.361837 41.3078 0.229953 42.71 0C43.8314 0 44.9512 0 46.0726 0ZM8.1089 32.4098H80.7981C80.5879 31.4308 80.4871 30.4992 80.1844 29.6385C78.9285 26.0641 76.4738 24.3547 72.6825 24.3496C67.6117 24.3412 62.5392 24.3479 57.4684 24.3479C57.1692 24.3479 56.8699 24.3479 56.5067 24.3479C56.5067 24.0656 56.5118 23.8745 56.5067 23.6834C56.4159 20.2206 55.5501 16.9793 53.82 13.973C50.6693 8.4981 44.3055 7.49882 39.6467 9.63096C36.1412 11.2356 34.3724 14.3162 33.3586 17.845C32.7601 19.9281 32.4928 22.1076 32.0573 24.3462C31.9009 24.3462 31.5983 24.3462 31.2974 24.3462C26.0853 24.3462 20.8733 24.2786 15.663 24.3665C10.9301 24.446 8.31234 27.924 8.10554 32.4115L8.1089 32.4098ZM54.4875 48.6975C60.4813 48.6975 66.4751 48.7128 72.469 48.6874C74.0292 48.6806 75.4028 48.1582 76.1897 46.6855C77.7432 43.7772 75.8248 40.5883 72.5278 40.5799C68.1312 40.568 63.7329 40.5782 59.3347 40.5782C51.7167 40.5782 44.0971 40.5748 36.4791 40.5816C34.4464 40.5816 32.8845 41.6772 32.4574 43.3613C31.6874 46.4048 33.4629 48.6992 36.5884 48.6992C42.5536 48.6992 48.5206 48.6992 54.4858 48.6975H54.4875ZM54.4824 64.9312C60.5317 64.9312 66.5827 64.9938 72.6304 64.9024C75.2717 64.8636 76.689 63.2522 76.6739 60.7312C76.6604 58.501 75.0144 56.8203 72.706 56.8169C60.5788 56.8 48.4516 56.8034 36.3244 56.8203C35.2736 56.8203 34.285 57.15 33.4847 57.8838C32.2944 58.9778 31.9413 60.8647 32.5852 62.564C33.1064 63.9387 34.6381 64.9244 36.3328 64.9278C42.3821 64.9363 48.4314 64.9312 54.4824 64.9312ZM18.5615 48.8024C19.3753 48.6823 20.6749 48.6367 21.8821 48.2782C23.4911 47.7997 24.2628 46.349 24.2208 44.413C24.1838 42.7053 23.2742 41.4219 21.7156 40.9062C19.7485 40.2552 17.7142 40.5528 15.7235 40.6306C13.6118 40.7135 12.2365 42.2639 12.1272 44.2676C12.0028 46.562 13.0284 48.0652 15.1771 48.5251C16.1203 48.728 17.1156 48.6925 18.5615 48.8007V48.8024ZM18.1412 64.987L18.1446 64.9312C18.8726 64.9312 19.6006 64.9515 20.3269 64.9278C22.4067 64.8602 23.9871 63.428 24.2023 61.4379C24.4494 59.1435 23.3616 57.3377 21.181 57.0181C19.3198 56.7459 17.3779 56.7087 15.5083 56.9099C13.3142 57.1466 12.1743 58.6295 12.1188 60.7261C12.0599 62.9073 13.0923 64.2954 15.3133 64.7909C16.2262 64.9938 17.198 64.9295 18.1429 64.987H18.1412Z" fill="#676767"/>
<path d="M46.1298 80.4614C47.1133 80.6288 47.7388 81.1107 48.3188 81.7143C53.0214 86.6042 57.7274 91.4907 62.4417 96.3704C63.7901 97.7671 65.1721 97.7112 66.4634 96.2893C71.5375 90.7028 76.6235 85.1281 81.6976 79.5433C85.6403 75.2046 89.5694 70.8558 93.507 66.5121C95 64.8652 96.2761 64.7215 98.0163 66.1519C99.6791 67.5198 101.325 68.9198 102.852 70.4365C104.335 71.9092 104.372 72.9964 103.023 74.5554C101.209 76.6554 99.2789 78.6522 97.3908 80.688C91.8812 86.6312 86.3683 92.5694 80.857 98.511C76.1863 103.546 71.514 108.582 66.8433 113.615C66.6534 113.821 66.4617 114.028 66.2616 114.222C65.1469 115.301 63.664 115.255 62.6334 114.1C55.2542 105.836 47.875 97.5709 40.5008 89.3028C39.334 87.9957 39.3777 86.3945 40.5933 85.1535C41.8105 83.9107 42.9891 82.6257 44.2686 81.4522C44.7713 80.9923 45.5026 80.7844 46.1298 80.4614Z" fill="#676767"/>
</g>
<defs>
<clipPath id="clip0_1_204">
<rect width="104" height="115" fill="white"/>
</clipPath>
</defs>
</svg>
