<svg width="107" height="114" viewBox="0 0 107 114" fill="none" xmlns="http://www.w3.org/2000/svg">
<g clip-path="url(#clip0_1_310)">
<path d="M71.8533 78.6243C79.3224 80.8832 86.6183 83.0877 93.9141 85.2868C101.914 87.7031 105.695 93.3718 106.263 101.468C106.556 105.584 106.751 109.71 107 114H0.0866504C-0.0379256 106.572 -0.514565 99.0569 3.2823 92.3999C4.68513 89.9456 7.43664 87.6813 10.0852 86.6497C16.8394 84.0162 23.8807 82.1157 30.819 79.9492C32.1785 79.5257 33.5759 79.2216 35.2983 78.7764C34.2801 88.5718 39.5285 95.7827 44.7661 102.885C46.6618 105.453 49.37 107.424 51.7153 109.656C52.8852 110.769 54.0064 110.65 55.1926 109.596C64.2867 101.571 71.5446 92.5519 71.5446 79.5528C71.5446 79.3845 71.6529 79.2162 71.8533 78.6189V78.6243Z" fill="#676767"/>
<path d="M78.4775 41.1311C81.6569 42.999 82.5885 44.7257 81.6785 48.4397C81.1152 50.742 79.8857 52.903 78.8079 55.0533C77.925 56.818 76.8688 58.5067 75.8126 60.1791C73.6028 63.6759 71.6475 67.3954 69.0422 70.5773C60.6523 80.8126 47.3768 81.1764 38.5048 71.3646C35.7587 68.3293 33.7493 64.6044 31.5015 61.1293C30.6294 59.7827 30.0282 58.2569 29.3295 56.8614C24.3627 57.1926 22.0879 55.9221 20.3709 51.2741C19.2659 48.2768 18.4481 45.1058 18.0581 41.9402C17.8902 40.5881 19.1522 39.0569 19.7697 37.6125C20.2626 36.4723 21.0371 35.3754 21.205 34.1917C21.4542 32.4162 21.3242 30.5809 21.2754 28.7727C20.9396 16.3926 27.2984 8.34015 37.9903 3.34468C51.4932 -2.96483 68.6414 -0.125008 78.3746 9.95282C82.7564 14.4868 85.6596 19.7537 85.3725 26.3945C85.2208 29.8207 85.47 33.2687 85.3021 36.6949C85.2588 37.542 84.3109 38.3402 83.7747 39.1601C83.206 38.3782 82.2473 37.6397 82.1498 36.7981C81.8627 34.3818 81.749 31.9221 81.8789 29.4895C82.4206 19.3573 77.34 12.4668 69.1289 7.60169C55.1926 -0.651705 36.2354 3.72477 27.9809 16.8705C25.9551 20.0958 24.9802 23.5492 24.9314 27.3664C24.8719 32.0958 24.4711 36.8469 28.2679 40.6533C27.3417 31.113 26.1555 21.3718 34.3342 13.9655C40.2056 8.64965 47.4093 6.78178 55.1059 7.25961C63.4092 7.77001 70.8729 10.5284 75.7368 17.8098C80.5249 24.9773 79.2249 33.0406 78.4666 41.1311H78.4775ZM32.9693 45.5727C32.2814 44.8017 31.8048 43.9546 31.0844 43.5908C30.7215 43.4062 29.362 44.2967 29.3891 44.3727C30.7215 48.1519 31.3336 52.6044 33.7926 55.4497C36.5333 58.6153 40.9422 60.342 44.6795 62.6062C45.1778 62.9103 46.3748 62.9809 46.586 62.6822C48.4438 60.0868 51.1032 60.961 53.5352 60.9121C55.6476 60.8687 56.7742 62.199 56.8446 64.0831C56.915 65.951 55.9184 67.4768 53.8223 67.5257C51.6936 67.5691 49.4513 67.694 47.4418 67.1239C43.7153 66.0759 40.1189 64.5501 36.2949 63.1546C39.7993 69.3718 44.0187 74.3021 51.6774 74.9537C59.5094 75.6216 65.0558 72.0868 68.9772 65.685C71.9345 60.8578 74.6319 55.8678 77.3238 50.8886C77.9467 49.732 78.4179 48.2985 78.3583 47.0225C78.2879 45.6216 77.5188 44.2533 76.8634 42.304C75.4335 43.8406 74.6644 44.6605 73.6407 45.7628C74.0957 42.2551 74.5073 39.1112 74.9298 35.8913C73.8952 35.7392 73.2832 35.5872 72.6657 35.5655C61.6489 35.2017 51.5257 32.4868 43.347 24.5157C42.9137 24.0922 42.0742 23.8261 41.4676 23.8967C37.0911 24.418 31.924 30.2551 32.0539 34.7347C32.1569 38.2913 32.6389 41.8316 32.9693 45.5673V45.5727Z" fill="#676767"/>
<path d="M53.4973 107.088C52.8257 106.599 52.3869 106.284 51.9536 105.958C46.0498 101.446 45.8494 101.006 48.7038 94.2514C49.7763 91.7157 50.2962 89.6143 47.7018 87.7302C47.0952 87.2904 46.7973 86.4216 46.3856 85.7863C50.215 80.427 56.7633 80.4162 60.3219 85.6668C60.2623 85.8352 60.2569 86.0686 60.1377 86.1664C56.4546 89.1528 56.7958 92.6116 59.0165 96.2279C60.8744 99.2524 60.0457 101.593 57.435 103.645C56.0971 104.699 54.8622 105.882 53.4973 107.082V107.088Z" fill="#676767"/>
</g>
<defs>
<clipPath id="clip0_1_310">
<rect width="107" height="114" fill="white"/>
</clipPath>
</defs>
</svg>
